G04 EasyPC Gerber Version 21.0.3 Build 4286 *
G04 #@! TF.Part,Single*
G04 #@! TF.FileFunction,Soldermask,Bot *
G04 #@! TF.FilePolarity,Negative *
%FSLAX35Y35*%
%MOIN*%
G04 #@! TA.AperFunction,ComponentPad*
%ADD109O,0.06100X0.08600*%
%ADD106O,0.06143X0.11687*%
G04 #@! TA.AperFunction,WasherPad*
%ADD100O,0.06600X0.11600*%
%ADD99O,0.10443X0.16348*%
G04 #@! TA.AperFunction,SMDPad*
%ADD107R,0.06100X0.06600*%
G04 #@! TA.AperFunction,ComponentPad*
%ADD117R,0.05128X0.05128*%
G04 #@! TA.AperFunction,WasherPad*
%ADD93R,0.06600X0.06600*%
G04 #@! TA.AperFunction,ComponentPad*
%ADD111R,0.06962X0.06962*%
%ADD118C,0.05128*%
%ADD116C,0.05364*%
%ADD105C,0.06143*%
%ADD115C,0.06506*%
%ADD119C,0.06545*%
G04 #@! TA.AperFunction,WasherPad*
%ADD94C,0.06600*%
G04 #@! TA.AperFunction,ComponentPad*
%ADD112C,0.06962*%
G04 #@! TA.AperFunction,WasherPad*
%ADD97C,0.07096*%
G04 #@! TA.AperFunction,ComponentPad*
%ADD113C,0.07600*%
G04 #@! TA.AperFunction,WasherPad*
%ADD101C,0.08474*%
G04 #@! TA.AperFunction,ComponentPad*
%ADD102C,0.18907*%
G04 #@! TA.AperFunction,WasherPad*
%ADD98C,0.20088*%
G04 #@! TA.AperFunction,ComponentPad*
%ADD103C,0.20285*%
G04 #@! TA.AperFunction,WasherPad*
%ADD95C,0.24222*%
G04 #@! TA.AperFunction,ComponentPad*
%ADD114O,0.08600X0.06100*%
G04 #@! TA.AperFunction,WasherPad*
%ADD92O,0.11600X0.06600*%
G04 #@! TA.AperFunction,ComponentPad*
%ADD104O,0.18300X0.09450*%
G04 #@! TA.AperFunction,WasherPad*
%ADD96O,0.16348X0.10443*%
%ADD91C,0.28159*%
G04 #@! TA.AperFunction,ComponentPad*
%AMT108*0 Octagon Pad at angle 0*4,1,8,-0.01200,-0.02900,0.01200,-0.02900,0.02900,-0.01200,0.02900,0.01200,0.01200,0.02900,-0.01200,0.02900,-0.02900,0.01200,-0.02900,-0.01200,-0.01200,-0.02900,0*%
%ADD108T108*%
G04 #@! TA.AperFunction,SMDPad*
%ADD110R,0.06600X0.06100*%
X0Y0D02*
D02*
D91*
X18656Y18557D03*
Y553990D03*
X18951Y585880D03*
X522494Y274364D03*
X522593Y18557D03*
X522789Y585880D03*
X983222Y274463D03*
X983518Y585880D03*
X1014423Y18557D03*
X1014522Y50152D03*
D02*
D92*
X804364Y534207D03*
Y544207D03*
X834364Y534207D03*
Y544207D03*
D02*
D93*
X28872Y272770D03*
X38872D03*
X46018Y429207D03*
Y439207D03*
Y449207D03*
Y459207D03*
X46411Y478400D03*
Y488400D03*
Y498400D03*
Y508400D03*
X48872Y272770D03*
X58872D03*
X68872D03*
X78872D03*
X217179Y267967D03*
X227179D03*
X228301Y318439D03*
Y328439D03*
Y338439D03*
X237179Y267967D03*
X247179D03*
X247317Y131963D03*
X257317D03*
X257435Y118360D03*
X267179D03*
X267317Y131963D03*
X276923Y118360D03*
X277317Y131963D03*
X287317D03*
X308222Y132238D03*
X318222D03*
X328222D03*
X338222D03*
X345329Y494148D03*
X355073D03*
X365112D03*
X374955Y493951D03*
X384699D03*
X394738D03*
X404384Y493852D03*
X414128D03*
X424167D03*
X433715D03*
X434404Y307376D03*
Y317376D03*
X471018Y499364D03*
X481844Y510585D03*
X569344Y310073D03*
Y320073D03*
Y330073D03*
X580762Y248675D03*
X590762D03*
X595841Y110289D03*
X600762Y248675D03*
X605841Y110289D03*
X605959Y91392D03*
X610762Y248675D03*
X615703Y91392D03*
X615841Y110289D03*
X620132Y358911D03*
X625447Y91392D03*
X625841Y110289D03*
X630132Y358911D03*
X635841Y110289D03*
X667474Y110388D03*
X677474D03*
X687474D03*
X697474D03*
X832927Y267907D03*
Y277907D03*
X858911Y495919D03*
D02*
D94*
X71215Y398970D03*
Y408970D03*
X99167Y528301D03*
Y538301D03*
X124364Y528301D03*
Y538301D03*
X149069Y528301D03*
Y538301D03*
X174659Y419344D03*
Y429344D03*
X229128Y188833D03*
Y214030D03*
Y238734D03*
X239128Y188833D03*
Y214030D03*
Y238734D03*
X338085Y264325D03*
X348085D03*
X358459Y160880D03*
X368459D03*
X472396Y116293D03*
X485191Y221707D03*
X588380Y165998D03*
Y191195D03*
Y215900D03*
X598380Y165998D03*
Y191195D03*
Y215900D03*
X604482Y498872D03*
Y518872D03*
X697337Y241490D03*
X704561Y515683D03*
Y535683D03*
X707337Y241490D03*
X715703Y515801D03*
Y545329D03*
X717711Y138045D03*
X727711D03*
X848616Y486116D03*
X858616Y477022D03*
X864719Y141589D03*
D02*
D95*
X661035Y587159D03*
D02*
D96*
X231156Y380270D03*
X231352Y395821D03*
Y411569D03*
Y443065D03*
X231549Y427120D03*
X484994Y301431D03*
X485191Y316982D03*
Y332730D03*
Y364226D03*
X485388Y348281D03*
Y379935D03*
Y395526D03*
X485585Y411274D03*
Y426825D03*
X896510Y174856D03*
X896608Y236470D03*
Y252219D03*
Y283715D03*
X896707Y158911D03*
Y221215D03*
X896805Y267770D03*
Y299423D03*
Y315014D03*
X897002Y330762D03*
Y346313D03*
X897396Y370526D03*
X897593Y386077D03*
Y401825D03*
Y433321D03*
X897789Y417376D03*
D02*
D97*
X132711Y73163D03*
Y81037D03*
Y88911D03*
Y96785D03*
Y104659D03*
Y112533D03*
Y120407D03*
Y128281D03*
Y136156D03*
Y144030D03*
Y165289D03*
Y173163D03*
Y181037D03*
Y188911D03*
Y196785D03*
Y204659D03*
Y212533D03*
Y220407D03*
X237356Y66490D03*
X241293Y76333D03*
X245230Y66490D03*
X249167Y76333D03*
X253104Y66490D03*
X257041Y76333D03*
X260978Y66490D03*
X264915Y76333D03*
X268852Y66490D03*
X272789Y76333D03*
X276726Y66490D03*
X280663Y76333D03*
X284600Y66490D03*
X288537Y76333D03*
X292474Y66490D03*
X296411Y76333D03*
X300348Y66490D03*
X304285Y76333D03*
X771608Y66785D03*
X775545Y76628D03*
X779482Y66785D03*
X783419Y76628D03*
X787356Y66785D03*
X791293Y76628D03*
X795230Y66785D03*
X799167Y76628D03*
X803104Y66785D03*
X807041Y76628D03*
X810978Y66785D03*
X814915Y76628D03*
X818852Y66785D03*
X822789Y76628D03*
X826726Y66785D03*
X830663Y76628D03*
X834600Y66785D03*
X838537Y76628D03*
X927514Y75250D03*
X931451Y65407D03*
X932337Y497986D03*
Y505860D03*
Y513734D03*
Y521608D03*
Y529482D03*
X935388Y75250D03*
X939325Y65407D03*
X943262Y75250D03*
X947199Y65407D03*
X951136Y75250D03*
X955073Y65407D03*
X959010Y75250D03*
X962947Y65407D03*
D02*
D98*
X110467Y54266D03*
Y240486D03*
X954581Y477907D03*
Y548380D03*
D02*
D99*
X258616Y556943D03*
X274561Y557140D03*
X290112Y556943D03*
X319305Y557435D03*
X334856D03*
X350604Y557238D03*
X366195D03*
X381904Y557041D03*
X388931Y354187D03*
X397848Y557238D03*
X404522Y354187D03*
X413400Y557041D03*
X429148D03*
X444699Y556844D03*
D02*
D100*
X344738Y431215D03*
X354738D03*
X364738D03*
X374738D03*
X384738D03*
X394738D03*
X404738D03*
X414738D03*
X424738D03*
X434738D03*
X444738D03*
D02*
D101*
X604974Y451333D03*
Y477612D03*
D02*
D102*
X906648Y43163D03*
X982632D03*
D02*
D103*
X212553Y44246D03*
X327907D03*
X746805Y44541D03*
X862159D03*
D02*
D104*
X631077Y483222D03*
X691077D03*
D02*
D105*
X539719Y540558D03*
X577120D03*
D02*
D106*
X646018Y526385D03*
X652711Y541739D03*
X659404Y526385D03*
X666096Y541739D03*
X672789Y526385D03*
D02*
D107*
X109502Y501065D03*
Y510065D03*
X123380Y501065D03*
Y510065D03*
X137061Y501065D03*
Y510065D03*
X141293Y390632D03*
Y399632D03*
Y420061D03*
Y429061D03*
X287848Y195356D03*
Y204356D03*
X317868Y161498D03*
Y170498D03*
X357829Y222817D03*
Y231817D03*
X375053Y471636D03*
Y480636D03*
X378203Y255199D03*
Y264199D03*
X378498Y162581D03*
Y171581D03*
X385486Y471636D03*
Y480636D03*
X387947Y221636D03*
Y230636D03*
X395722Y471636D03*
Y480636D03*
X398183Y221636D03*
Y230636D03*
X398675Y162974D03*
Y171974D03*
X405368Y471636D03*
Y480636D03*
X407632Y221636D03*
Y230636D03*
X415112Y471636D03*
Y480636D03*
X417770Y222226D03*
Y231226D03*
X417868Y162876D03*
Y171876D03*
X425053Y471636D03*
Y480636D03*
X427809Y222128D03*
Y231128D03*
X435289Y471636D03*
Y480636D03*
X437553Y221931D03*
Y230931D03*
X646271Y505002D03*
Y514002D03*
X647396Y172915D03*
Y181915D03*
X677120Y138663D03*
Y147663D03*
X717081Y199982D03*
Y208982D03*
X737553Y230396D03*
Y239396D03*
X737750Y139746D03*
Y148746D03*
X747297Y196833D03*
Y205833D03*
X757533Y196833D03*
Y205833D03*
X757927Y140140D03*
Y149140D03*
X766982Y196833D03*
Y205833D03*
X777022Y199392D03*
Y208392D03*
X777120Y140041D03*
Y149041D03*
X787061Y199293D03*
Y208293D03*
X796805Y199096D03*
Y208096D03*
D02*
D108*
X595565Y538636D03*
X615565D03*
X661805Y505663D03*
X681805D03*
X854187Y565447D03*
Y585447D03*
X859640Y515506D03*
X879640D03*
X882829Y463813D03*
Y503813D03*
X906451Y515978D03*
Y555978D03*
X906648Y463813D03*
Y503813D03*
D02*
D109*
X257907Y183144D03*
Y243144D03*
X267907Y183144D03*
Y243144D03*
X277907Y183144D03*
Y243144D03*
X287907Y183144D03*
Y243144D03*
X297907Y183144D03*
Y243144D03*
X307907Y183144D03*
Y243144D03*
X317907Y183144D03*
Y243144D03*
X327907Y183144D03*
Y243144D03*
X337907Y183144D03*
Y243144D03*
X347907Y183144D03*
Y243144D03*
X357907Y183144D03*
Y243144D03*
X367907Y183144D03*
Y243144D03*
X377907Y183144D03*
Y243144D03*
X387907Y183144D03*
Y243144D03*
X397907Y183144D03*
Y243144D03*
X407907Y183144D03*
Y243144D03*
X417907Y183144D03*
Y243144D03*
X427907Y183144D03*
Y243144D03*
X437907Y183144D03*
Y243144D03*
X447907Y183144D03*
Y243144D03*
X617159Y160309D03*
Y220309D03*
X627159Y160309D03*
Y220309D03*
X637159Y160309D03*
Y220309D03*
X647159Y160309D03*
Y220309D03*
X657159Y160309D03*
Y220309D03*
X667159Y160309D03*
Y220309D03*
X677159Y160309D03*
Y220309D03*
X687159Y160309D03*
Y220309D03*
X697159Y160309D03*
Y220309D03*
X707159Y160309D03*
Y220309D03*
X717159Y160309D03*
Y220309D03*
X727159Y160309D03*
Y220309D03*
X737159Y160309D03*
Y220309D03*
X747159Y160309D03*
Y220309D03*
X757159Y160309D03*
Y220309D03*
X767159Y160309D03*
Y220309D03*
X777159Y160309D03*
Y220309D03*
X787159Y160309D03*
Y220309D03*
X797159Y160309D03*
Y220309D03*
X807159Y160309D03*
Y220309D03*
D02*
D110*
X71833Y449561D03*
X72817Y459896D03*
X72915Y388931D03*
Y469344D03*
X73211Y349561D03*
Y479384D03*
Y489620D03*
X73309Y368754D03*
X80833Y449561D03*
X81817Y459896D03*
X81915Y388931D03*
Y469344D03*
X82211Y349561D03*
Y479384D03*
Y489620D03*
X82309Y368754D03*
X130199Y359994D03*
Y369443D03*
Y379679D03*
X132266Y329876D03*
X132463Y339620D03*
X132561Y349659D03*
X133152Y409600D03*
X139199Y359994D03*
Y369443D03*
Y379679D03*
X141266Y329876D03*
X141463Y339620D03*
X141561Y349659D03*
X142152Y409600D03*
X163762Y389423D03*
X172762D03*
X257364Y199167D03*
Y213045D03*
Y226726D03*
X266364Y199167D03*
Y213045D03*
Y226726D03*
X317994Y194541D03*
X326994D03*
X338368Y230959D03*
X347368D03*
X367797D03*
X376797D03*
X616616Y176333D03*
Y190211D03*
Y203892D03*
X625616Y176333D03*
Y190211D03*
Y203892D03*
X697620Y208124D03*
X706620D03*
X727049D03*
X736049D03*
D02*
D111*
X304856Y460604D03*
D02*
D112*
Y520604D03*
X314856Y460604D03*
Y520604D03*
X324856Y460604D03*
Y520604D03*
X334856Y460604D03*
Y520604D03*
X344856Y460604D03*
Y520604D03*
X354856Y460604D03*
Y520604D03*
X364856Y460604D03*
Y520604D03*
X374856Y460604D03*
Y520604D03*
X384856Y460604D03*
Y520604D03*
X394856Y460604D03*
Y520604D03*
X404856Y460604D03*
Y520604D03*
X414856Y460604D03*
Y520604D03*
X424856Y460604D03*
Y520604D03*
X434856Y460604D03*
Y520604D03*
X444856Y460604D03*
Y520604D03*
D02*
D113*
X217376Y476037D03*
Y499659D03*
X235093Y476037D03*
Y499659D03*
X267770Y307041D03*
Y324758D03*
X291392Y307041D03*
Y324758D03*
X627022Y284207D03*
Y301923D03*
X650644Y284207D03*
Y301923D03*
D02*
D114*
X93478Y319522D03*
Y329522D03*
Y339522D03*
Y349522D03*
Y359522D03*
Y369522D03*
Y379522D03*
Y389522D03*
Y399522D03*
Y409522D03*
Y419522D03*
Y429522D03*
Y439522D03*
Y449522D03*
Y459522D03*
Y469522D03*
Y479522D03*
Y489522D03*
Y499522D03*
Y509522D03*
X153478Y319522D03*
Y329522D03*
Y339522D03*
Y349522D03*
Y359522D03*
Y369522D03*
Y379522D03*
Y389522D03*
Y399522D03*
Y409522D03*
Y419522D03*
Y429522D03*
Y439522D03*
Y449522D03*
Y459522D03*
Y469522D03*
Y479522D03*
Y489522D03*
Y499522D03*
Y509522D03*
D02*
D115*
X685959Y420841D03*
Y450841D03*
X686057Y369463D03*
Y399463D03*
X715959Y420841D03*
Y450841D03*
X716057Y369463D03*
Y399463D03*
X735959Y420841D03*
Y450841D03*
X736057Y369463D03*
Y399463D03*
X755959Y420841D03*
Y450841D03*
X756057Y369463D03*
Y399463D03*
D02*
D116*
X804837Y567159D03*
X814837D03*
X824837D03*
X834837D03*
D02*
D117*
X882730Y556254D03*
D02*
D118*
Y536254D03*
Y546254D03*
D02*
D119*
X482041Y499069D03*
X489128D03*
X496215D03*
X0Y0D02*
M02*
