G04 EasyPC Gerber Version 21.0.3 Build 4286 *
G04 #@! TF.Part,Single*
G04 #@! TF.FileFunction,Paste,Top *
G04 #@! TF.FilePolarity,Positive *
%FSLAX35Y35*%
%MOIN*%
G04 #@! TA.AperFunction,SMDPad*
%ADD151R,0.03400X0.04200*%
%ADD80R,0.04900X0.05400*%
%ADD150R,0.05502X0.08061*%
%ADD79R,0.05400X0.04900*%
X0Y0D02*
D02*
D79*
X71734Y439423D03*
X73211Y339030D03*
X73309Y379187D03*
X73407Y358911D03*
X80734Y439423D03*
X82211Y339030D03*
X82309Y379187D03*
X82407Y358911D03*
X84136Y309994D03*
X93136D03*
X164648Y449758D03*
Y460191D03*
Y469935D03*
Y479974D03*
X165730Y409404D03*
X165927Y399561D03*
X173648Y449758D03*
Y460191D03*
Y469935D03*
Y479974D03*
X174730Y409404D03*
X174927Y399561D03*
X185022Y479974D03*
X185219Y469935D03*
X185514Y460093D03*
X185711Y449758D03*
X194022Y479974D03*
X194219Y469935D03*
X194514Y460093D03*
X194711Y449758D03*
X258939Y255171D03*
X267939D03*
X358152Y196215D03*
X367152D03*
X438270Y171904D03*
X447270D03*
X453427Y265506D03*
X453526Y255171D03*
Y275545D03*
X462427Y265506D03*
X462526Y255171D03*
Y275545D03*
X470258Y466785D03*
X479258D03*
X618191Y233911D03*
X627191D03*
X717404Y173380D03*
X726404D03*
X797522Y149069D03*
X806522D03*
X812778Y232337D03*
X817207Y188931D03*
X817305Y200644D03*
X821778Y232337D03*
X826207Y188931D03*
X826305Y200644D03*
X827246Y219935D03*
X836246D03*
D02*
D80*
X82238Y320159D03*
Y329159D03*
X106549Y400278D03*
Y409278D03*
X122100Y300474D03*
Y309474D03*
X133813Y300376D03*
Y309376D03*
X147593Y280494D03*
Y289494D03*
X165506Y304904D03*
Y313904D03*
X167573Y499195D03*
Y508195D03*
X257041Y142699D03*
Y151699D03*
X267868Y142797D03*
Y151797D03*
X277514Y142896D03*
Y151896D03*
X287455Y254313D03*
Y263313D03*
Y274687D03*
Y283687D03*
X297494Y254313D03*
Y263313D03*
Y274884D03*
Y283884D03*
X307238Y254313D03*
Y263313D03*
X307337Y275179D03*
Y284179D03*
X317671Y254313D03*
Y263313D03*
Y275376D03*
Y284376D03*
X328006Y161400D03*
Y170400D03*
X358026Y255396D03*
Y264396D03*
X364719Y469864D03*
Y478864D03*
X367868Y255593D03*
Y264593D03*
X388242Y162974D03*
Y171974D03*
X408518Y163073D03*
Y172073D03*
X428400Y162876D03*
Y171876D03*
X457435Y173801D03*
Y182801D03*
X466884Y221537D03*
Y230537D03*
X512848Y498407D03*
Y507407D03*
X605663Y120455D03*
Y129455D03*
X616490Y120553D03*
Y129553D03*
X626136Y120652D03*
Y129652D03*
X646707Y231478D03*
Y240478D03*
Y251852D03*
Y260852D03*
X656746Y231478D03*
Y240478D03*
Y252049D03*
Y261049D03*
X666490Y231478D03*
Y240478D03*
X666589Y252344D03*
Y261344D03*
X676923Y231478D03*
Y240478D03*
Y252541D03*
Y261541D03*
X687258Y138565D03*
Y147565D03*
X717278Y232561D03*
Y241561D03*
X727120Y232758D03*
Y241758D03*
X747494Y140140D03*
Y149140D03*
X767770Y140238D03*
Y149238D03*
X787652Y140041D03*
Y149041D03*
X804187Y512089D03*
Y521089D03*
X816687Y150967D03*
Y159967D03*
X849167Y534923D03*
Y543923D03*
X849463Y516715D03*
Y525715D03*
D02*
D150*
X671451Y427474D03*
Y443616D03*
X671549Y376096D03*
Y392238D03*
D02*
D151*
X452156Y116816D03*
X456156Y125516D03*
X460156Y116816D03*
X864656Y158745D03*
X868656Y167445D03*
X872656Y158745D03*
X0Y0D02*
M02*
