G04 EasyPC Gerber Version 21.0.3 Build 4286 *
G04 #@! TF.Part,Single*
G04 #@! TF.FileFunction,Drillmap *
G04 #@! TF.FilePolarity,Positive *
%FSLAX35Y35*%
%MOIN*%
%ADD84C,0.00500*%
G04 #@! TA.AperFunction,WasherPad*
%ADD122C,0.10000*%
X0Y0D02*
D02*
D84*
X28656Y25744D02*
Y26994D01*
X28968Y27620*
X29281Y27932*
X29906Y28244*
X30531*
X31156Y27932*
X31468Y27620*
X31781Y26994*
Y25744*
X31468Y25120*
X31156Y24807*
X30531Y24494*
X29906*
X29281Y24807*
X28968Y25120*
X28656Y25744*
Y561178D02*
Y562428D01*
X28968Y563053*
X29281Y563365*
X29906Y563678*
X30531*
X31156Y563365*
X31468Y563053*
X31781Y562428*
Y561178*
X31468Y560553*
X31156Y560240*
X30531Y559928*
X29906*
X29281Y560240*
X28968Y560553*
X28656Y561178*
X28951Y593067D02*
Y594317D01*
X29263Y594943*
X29576Y595255*
X30201Y595567*
X30826*
X31451Y595255*
X31763Y594943*
X32076Y594317*
Y593067*
X31763Y592443*
X31451Y592130*
X30826Y591817*
X30201*
X29576Y592130*
X29263Y592443*
X28951Y593067*
X38872Y278707D02*
Y282457D01*
X40747*
X41372Y282145*
X41685Y281832*
X41997Y281207*
Y279957*
X41685Y279332*
X41372Y279020*
X40747Y278707*
X38872*
X48439Y366433D02*
Y362683D01*
X51564*
X48872Y278707D02*
Y282457D01*
X50747*
X51372Y282145*
X51685Y281832*
X51997Y281207*
Y279957*
X51685Y279332*
X51372Y279020*
X50747Y278707*
X48872*
X56018Y435144D02*
Y438894D01*
X57893*
X58518Y438582*
X58830Y438269*
X59143Y437644*
Y436394*
X58830Y435769*
X58518Y435457*
X57893Y435144*
X56018*
Y445144D02*
Y448894D01*
X57893*
X58518Y448582*
X58830Y448269*
X59143Y447644*
Y446394*
X58830Y445769*
X58518Y445457*
X57893Y445144*
X56018*
Y455144D02*
Y458894D01*
X57893*
X58518Y458582*
X58830Y458269*
X59143Y457644*
Y456394*
X58830Y455769*
X58518Y455457*
X57893Y455144*
X56018*
Y465144D02*
Y468894D01*
X57893*
X58518Y468582*
X58830Y468269*
X59143Y467644*
Y466394*
X58830Y465769*
X58518Y465457*
X57893Y465144*
X56018*
X56411Y484337D02*
Y488087D01*
X58287*
X58911Y487775*
X59224Y487462*
X59537Y486837*
Y485587*
X59224Y484962*
X58911Y484650*
X58287Y484337*
X56411*
Y494337D02*
Y498087D01*
X58287*
X58911Y497775*
X59224Y497462*
X59537Y496837*
Y495587*
X59224Y494962*
X58911Y494650*
X58287Y494337*
X56411*
Y504337D02*
Y508087D01*
X58287*
X58911Y507775*
X59224Y507462*
X59537Y506837*
Y505587*
X59224Y504962*
X58911Y504650*
X58287Y504337*
X56411*
Y514337D02*
Y518087D01*
X58287*
X58911Y517775*
X59224Y517462*
X59537Y516837*
Y515587*
X59224Y514962*
X58911Y514650*
X58287Y514337*
X56411*
X58085Y383559D02*
Y379809D01*
X61210*
X58872Y278707D02*
Y282457D01*
X60747*
X61372Y282145*
X61685Y281832*
X61997Y281207*
Y279957*
X61685Y279332*
X61372Y279020*
X60747Y278707*
X58872*
X68872D02*
Y282457D01*
X70747*
X71372Y282145*
X71685Y281832*
X71997Y281207*
Y279957*
X71685Y279332*
X71372Y279020*
X70747Y278707*
X68872*
X70093Y299898D02*
Y296148D01*
X73218*
X70388Y309544D02*
Y305794D01*
X73513*
X78872Y278707D02*
Y282457D01*
X80747*
X81372Y282145*
X81685Y281832*
X81997Y281207*
Y279957*
X81685Y279332*
X81372Y279020*
X80747Y278707*
X78872*
X84340Y405533D02*
X84027Y405220D01*
X83402Y404908*
X82465*
X81840Y405220*
X81527Y405533*
X81215Y406158*
Y407408*
X81527Y408033*
X81840Y408346*
X82465Y408658*
X83402*
X84027Y408346*
X84340Y408033*
Y415533D02*
X84027Y415220D01*
X83402Y414908*
X82465*
X81840Y415220*
X81527Y415533*
X81215Y416158*
Y417408*
X81527Y418033*
X81840Y418346*
X82465Y418658*
X83402*
X84027Y418346*
X84340Y418033*
X88872Y278707D02*
Y282457D01*
X90747*
X91372Y282145*
X91685Y281832*
X91997Y281207*
Y279957*
X91685Y279332*
X91372Y279020*
X90747Y278707*
X88872*
X103478Y325459D02*
Y329209D01*
X106604*
X105978Y327334D02*
X103478D01*
Y325459D02*
X106604D01*
X103478Y335459D02*
Y339209D01*
X106604*
X105978Y337334D02*
X103478D01*
Y335459D02*
X106604D01*
X103478Y345459D02*
Y349209D01*
X106604*
X105978Y347334D02*
X103478D01*
Y345459D02*
X106604D01*
X103478Y355459D02*
Y359209D01*
X106604*
X105978Y357334D02*
X103478D01*
Y355459D02*
X106604D01*
X103478Y365459D02*
Y369209D01*
X106604*
X105978Y367334D02*
X103478D01*
Y365459D02*
X106604D01*
X103478Y375459D02*
Y379209D01*
X106604*
X105978Y377334D02*
X103478D01*
Y375459D02*
X106604D01*
X103478Y385459D02*
Y389209D01*
X106604*
X105978Y387334D02*
X103478D01*
Y385459D02*
X106604D01*
X103478Y395459D02*
Y399209D01*
X106604*
X105978Y397334D02*
X103478D01*
Y395459D02*
X106604D01*
X103478Y409209D02*
Y405459D01*
X106604*
X103478D02*
Y409209D01*
X106604*
X105978Y407334D02*
X103478D01*
Y405459D02*
X106604D01*
X103478Y415459D02*
Y419209D01*
X106604*
X105978Y417334D02*
X103478D01*
Y415459D02*
X106604D01*
X103478Y425459D02*
Y429209D01*
X106604*
X105978Y427334D02*
X103478D01*
Y425459D02*
X106604D01*
X103478Y435459D02*
Y439209D01*
X106604*
X105978Y437334D02*
X103478D01*
Y435459D02*
X106604D01*
X103478Y445459D02*
Y449209D01*
X106604*
X105978Y447334D02*
X103478D01*
Y445459D02*
X106604D01*
X103478Y455459D02*
Y459209D01*
X106604*
X105978Y457334D02*
X103478D01*
Y455459D02*
X106604D01*
X103478Y465459D02*
Y469209D01*
X106604*
X105978Y467334D02*
X103478D01*
Y465459D02*
X106604D01*
X103478Y475459D02*
Y479209D01*
X106604*
X105978Y477334D02*
X103478D01*
Y475459D02*
X106604D01*
X103478Y485459D02*
Y489209D01*
X106604*
X105978Y487334D02*
X103478D01*
Y485459D02*
X106604D01*
X103478Y495459D02*
Y499209D01*
X106604*
X105978Y497334D02*
X103478D01*
Y495459D02*
X106604D01*
X103478Y505459D02*
Y509209D01*
X106604*
X105978Y507334D02*
X103478D01*
Y505459D02*
X106604D01*
X103478Y515459D02*
Y519209D01*
X106604*
X105978Y517334D02*
X103478D01*
Y515459D02*
X106604D01*
X112293Y534864D02*
X111980Y534551D01*
X111355Y534239*
X110417*
X109793Y534551*
X109480Y534864*
X109167Y535489*
Y536739*
X109480Y537364*
X109793Y537676*
X110417Y537989*
X111355*
X111980Y537676*
X112293Y537364*
Y544864D02*
X111980Y544551D01*
X111355Y544239*
X110417*
X109793Y544551*
X109480Y544864*
X109167Y545489*
Y546739*
X109480Y547364*
X109793Y547676*
X110417Y547989*
X111355*
X111980Y547676*
X112293Y547364*
X120467Y61453D02*
Y62703D01*
X120779Y63328*
X121092Y63641*
X121717Y63953*
X122342*
X122967Y63641*
X123279Y63328*
X123592Y62703*
Y61453*
X123279Y60828*
X122967Y60516*
X122342Y60203*
X121717*
X121092Y60516*
X120779Y60828*
X120467Y61453*
X122654Y61141D02*
X123592Y60203D01*
X120467Y247674D02*
Y248924D01*
X120779Y249549*
X121092Y249861*
X121717Y250174*
X122342*
X122967Y249861*
X123279Y249549*
X123592Y248924*
Y247674*
X123279Y247049*
X122967Y246736*
X122342Y246424*
X121717*
X121092Y246736*
X120779Y247049*
X120467Y247674*
X122654Y247361D02*
X123592Y246424D01*
X137489Y534864D02*
X137177Y534551D01*
X136552Y534239*
X135614*
X134989Y534551*
X134677Y534864*
X134364Y535489*
Y536739*
X134677Y537364*
X134989Y537676*
X135614Y537989*
X136552*
X137177Y537676*
X137489Y537364*
Y544864D02*
X137177Y544551D01*
X136552Y544239*
X135614*
X134989Y544551*
X134677Y544864*
X134364Y545489*
Y546739*
X134677Y547364*
X134989Y547676*
X135614Y547989*
X136552*
X137177Y547676*
X137489Y547364*
X142711Y79101D02*
Y82851D01*
X144898*
X145523Y82539*
X145836Y81913*
X145523Y81289*
X144898Y80976*
X142711*
Y86975D02*
Y90725D01*
X144898*
X145523Y90413*
X145836Y89787*
X145523Y89163*
X144898Y88850*
X142711*
Y94849D02*
Y98599D01*
X144898*
X145523Y98287*
X145836Y97661*
X145523Y97037*
X144898Y96724*
X142711*
Y102723D02*
Y106473D01*
X144898*
X145523Y106161*
X145836Y105535*
X145523Y104911*
X144898Y104598*
X142711*
Y110597D02*
Y114347D01*
X144898*
X145523Y114035*
X145836Y113409*
X145523Y112785*
X144898Y112472*
X142711*
Y118471D02*
Y122221D01*
X144898*
X145523Y121909*
X145836Y121283*
X145523Y120659*
X144898Y120346*
X142711*
Y126345D02*
Y130095D01*
X144898*
X145523Y129783*
X145836Y129157*
X145523Y128533*
X144898Y128220*
X142711*
Y134219D02*
Y137969D01*
X144898*
X145523Y137657*
X145836Y137031*
X145523Y136407*
X144898Y136094*
X142711*
Y142093D02*
Y145843D01*
X144898*
X145523Y145531*
X145836Y144906*
X145523Y144281*
X144898Y143968*
X142711*
Y149967D02*
Y153717D01*
X144898*
X145523Y153405*
X145836Y152780*
X145523Y152155*
X144898Y151842*
X142711*
Y171227D02*
Y174977D01*
X144898*
X145523Y174665*
X145836Y174039*
X145523Y173415*
X144898Y173102*
X142711*
Y179101D02*
Y182851D01*
X144898*
X145523Y182539*
X145836Y181913*
X145523Y181289*
X144898Y180976*
X142711*
Y186975D02*
Y190725D01*
X144898*
X145523Y190413*
X145836Y189787*
X145523Y189163*
X144898Y188850*
X142711*
Y194849D02*
Y198599D01*
X144898*
X145523Y198287*
X145836Y197661*
X145523Y197037*
X144898Y196724*
X142711*
Y202723D02*
Y206473D01*
X144898*
X145523Y206161*
X145836Y205535*
X145523Y204911*
X144898Y204598*
X142711*
Y210597D02*
Y214347D01*
X144898*
X145523Y214035*
X145836Y213409*
X145523Y212785*
X144898Y212472*
X142711*
Y218471D02*
Y222221D01*
X144898*
X145523Y221909*
X145836Y221283*
X145523Y220659*
X144898Y220346*
X142711*
Y226345D02*
Y230095D01*
X144898*
X145523Y229783*
X145836Y229157*
X145523Y228533*
X144898Y228220*
X142711*
X162194Y534864D02*
X161881Y534551D01*
X161256Y534239*
X160319*
X159694Y534551*
X159381Y534864*
X159069Y535489*
Y536739*
X159381Y537364*
X159694Y537676*
X160319Y537989*
X161256*
X161881Y537676*
X162194Y537364*
Y544864D02*
X161881Y544551D01*
X161256Y544239*
X160319*
X159694Y544551*
X159381Y544864*
X159069Y545489*
Y546739*
X159381Y547364*
X159694Y547676*
X160319Y547989*
X161256*
X161881Y547676*
X162194Y547364*
X163478Y325459D02*
Y329209D01*
X166604*
X165978Y327334D02*
X163478D01*
Y325459D02*
X166604D01*
X163478Y335459D02*
Y339209D01*
X166604*
X165978Y337334D02*
X163478D01*
Y335459D02*
X166604D01*
X163478Y345459D02*
Y349209D01*
X166604*
X165978Y347334D02*
X163478D01*
Y345459D02*
X166604D01*
X163478Y355459D02*
Y359209D01*
X166604*
X165978Y357334D02*
X163478D01*
Y355459D02*
X166604D01*
X163478Y365459D02*
Y369209D01*
X166604*
X165978Y367334D02*
X163478D01*
Y365459D02*
X166604D01*
X163478Y375459D02*
Y379209D01*
X166604*
X165978Y377334D02*
X163478D01*
Y375459D02*
X166604D01*
X163478Y385459D02*
Y389209D01*
X166604*
X165978Y387334D02*
X163478D01*
Y385459D02*
X166604D01*
X163478Y395459D02*
Y399209D01*
X166604*
X165978Y397334D02*
X163478D01*
Y395459D02*
X166604D01*
X163478Y405459D02*
Y409209D01*
X166604*
X165978Y407334D02*
X163478D01*
Y405459D02*
X166604D01*
X163478Y415459D02*
Y419209D01*
X166604*
X165978Y417334D02*
X163478D01*
Y415459D02*
X166604D01*
X163478Y429209D02*
Y425459D01*
X166604*
X163478D02*
Y429209D01*
X166604*
X165978Y427334D02*
X163478D01*
Y425459D02*
X166604D01*
X163478Y435459D02*
Y439209D01*
X166604*
X165978Y437334D02*
X163478D01*
Y435459D02*
X166604D01*
X163478Y445459D02*
Y449209D01*
X166604*
X165978Y447334D02*
X163478D01*
Y445459D02*
X166604D01*
X163478Y455459D02*
Y459209D01*
X166604*
X165978Y457334D02*
X163478D01*
Y455459D02*
X166604D01*
X163478Y465459D02*
Y469209D01*
X166604*
X165978Y467334D02*
X163478D01*
Y465459D02*
X166604D01*
X163478Y475459D02*
Y479209D01*
X166604*
X165978Y477334D02*
X163478D01*
Y475459D02*
X166604D01*
X163478Y485459D02*
Y489209D01*
X166604*
X165978Y487334D02*
X163478D01*
Y485459D02*
X166604D01*
X163478Y495459D02*
Y499209D01*
X166604*
X165978Y497334D02*
X163478D01*
Y495459D02*
X166604D01*
X163478Y505459D02*
Y509209D01*
X166604*
X165978Y507334D02*
X163478D01*
Y505459D02*
X166604D01*
X163478Y515459D02*
Y519209D01*
X166604*
X165978Y517334D02*
X163478D01*
Y515459D02*
X166604D01*
X167435Y286207D02*
Y289957D01*
Y288082D02*
X168372D01*
X170560Y289957*
X168372Y288082D02*
X170560Y286207D01*
X168222Y295361D02*
Y299111D01*
Y297236D02*
X169160D01*
X171348Y299111*
X169160Y297236D02*
X171348Y295361D01*
X187785Y425907D02*
X187472Y425594D01*
X186847Y425282*
X185909*
X185285Y425594*
X184972Y425907*
X184659Y426532*
Y427782*
X184972Y428407*
X185285Y428720*
X185909Y429032*
X186847*
X187472Y428720*
X187785Y428407*
Y435907D02*
X187472Y435594D01*
X186847Y435282*
X185909*
X185285Y435594*
X184972Y435907*
X184659Y436532*
Y437782*
X184972Y438407*
X185285Y438720*
X185909Y439032*
X186847*
X187472Y438720*
X187785Y438407*
X222553Y51433D02*
Y52683D01*
X222866Y53309*
X223178Y53621*
X223803Y53933*
X224428*
X225053Y53621*
X225366Y53309*
X225678Y52683*
Y51433*
X225366Y50809*
X225053Y50496*
X224428Y50183*
X223803*
X223178Y50496*
X222866Y50809*
X222553Y51433*
X224741Y51121D02*
X225678Y50183D01*
X227179Y273904D02*
Y277654D01*
X229054*
X229679Y277342*
X229992Y277029*
X230304Y276404*
Y275154*
X229992Y274529*
X229679Y274217*
X229054Y273904*
X227179*
X227376Y485725D02*
Y482913D01*
X227689Y482287*
X228313Y481975*
X229563*
X230189Y482287*
X230501Y482913*
Y485725*
X227376Y509347D02*
Y506535D01*
X227689Y505909*
X228313Y505597*
X229563*
X230189Y505909*
X230501Y506535*
Y509347*
X237179Y273904D02*
Y277654D01*
X239054*
X239679Y277342*
X239992Y277029*
X240304Y276404*
Y275154*
X239992Y274529*
X239679Y274217*
X239054Y273904*
X237179*
X238301Y324376D02*
Y328126D01*
X240176*
X240801Y327814*
X241114Y327502*
X241426Y326876*
Y325626*
X241114Y325002*
X240801Y324689*
X240176Y324376*
X238301*
Y334376D02*
Y338126D01*
X240176*
X240801Y337814*
X241114Y337502*
X241426Y336876*
Y335626*
X241114Y335002*
X240801Y334689*
X240176Y334376*
X238301*
Y344376D02*
Y348126D01*
X240176*
X240801Y347814*
X241114Y347502*
X241426Y346876*
Y345626*
X241114Y345002*
X240801Y344689*
X240176Y344376*
X238301*
X242253Y195395D02*
X241941Y195083D01*
X241315Y194770*
X240378*
X239753Y195083*
X239441Y195395*
X239128Y196020*
Y197270*
X239441Y197895*
X239753Y198208*
X240378Y198520*
X241315*
X241941Y198208*
X242253Y197895*
Y220592D02*
X241941Y220280D01*
X241315Y219967*
X240378*
X239753Y220280*
X239441Y220592*
X239128Y221217*
Y222467*
X239441Y223092*
X239753Y223405*
X240378Y223717*
X241315*
X241941Y223405*
X242253Y223092*
Y245297D02*
X241941Y244984D01*
X241315Y244672*
X240378*
X239753Y244984*
X239441Y245297*
X239128Y245922*
Y247172*
X239441Y247797*
X239753Y248109*
X240378Y248422*
X241315*
X241941Y248109*
X242253Y247797*
X243343Y388082D02*
X243968Y387770D01*
X244281Y387145*
X243968Y386520*
X243343Y386207*
X241156*
Y389957*
X243343*
X243968Y389645*
X244281Y389020*
X243968Y388395*
X243343Y388082*
X241156*
X243540Y403633D02*
X244165Y403321D01*
X244478Y402696*
X244165Y402071*
X243540Y401758*
X241352*
Y405508*
X243540*
X244165Y405196*
X244478Y404571*
X244165Y403946*
X243540Y403633*
X241352*
X243540Y419381D02*
X244165Y419069D01*
X244478Y418444*
X244165Y417819*
X243540Y417506*
X241352*
Y421256*
X243540*
X244165Y420944*
X244478Y420319*
X244165Y419694*
X243540Y419381*
X241352*
X243540Y450878D02*
X244165Y450565D01*
X244478Y449940*
X244165Y449315*
X243540Y449002*
X241352*
Y452752*
X243540*
X244165Y452440*
X244478Y451815*
X244165Y451190*
X243540Y450878*
X241352*
X243737Y434933D02*
X244362Y434620D01*
X244674Y433995*
X244362Y433370*
X243737Y433057*
X241549*
Y436807*
X243737*
X244362Y436495*
X244674Y435870*
X244362Y435245*
X243737Y434933*
X241549*
X245093Y485725D02*
Y482913D01*
X245405Y482287*
X246030Y481975*
X247280*
X247905Y482287*
X248218Y482913*
Y485725*
X245093Y509347D02*
Y506535D01*
X245405Y505909*
X246030Y505597*
X247280*
X247905Y505909*
X248218Y506535*
Y509347*
X247179Y273904D02*
Y277654D01*
X249054*
X249679Y277342*
X249992Y277029*
X250304Y276404*
Y275154*
X249992Y274529*
X249679Y274217*
X249054Y273904*
X247179*
X247356Y72428D02*
Y76178D01*
X249544*
X250169Y75865*
X250481Y75240*
X250169Y74615*
X249544Y74303*
X247356*
X252253Y195395D02*
X251941Y195083D01*
X251315Y194770*
X250378*
X249753Y195083*
X249441Y195395*
X249128Y196020*
Y197270*
X249441Y197895*
X249753Y198208*
X250378Y198520*
X251315*
X251941Y198208*
X252253Y197895*
Y220592D02*
X251941Y220280D01*
X251315Y219967*
X250378*
X249753Y220280*
X249441Y220592*
X249128Y221217*
Y222467*
X249441Y223092*
X249753Y223405*
X250378Y223717*
X251315*
X251941Y223405*
X252253Y223092*
Y245297D02*
X251941Y244984D01*
X251315Y244672*
X250378*
X249753Y244984*
X249441Y245297*
X249128Y245922*
Y247172*
X249441Y247797*
X249753Y248109*
X250378Y248422*
X251315*
X251941Y248109*
X252253Y247797*
X251293Y82270D02*
Y86020D01*
X253481*
X254106Y85708*
X254419Y85083*
X254106Y84458*
X253481Y84145*
X251293*
X255230Y72428D02*
Y76178D01*
X257418*
X258043Y75865*
X258356Y75240*
X258043Y74615*
X257418Y74303*
X255230*
X257179Y273904D02*
Y277654D01*
X259054*
X259679Y277342*
X259992Y277029*
X260304Y276404*
Y275154*
X259992Y274529*
X259679Y274217*
X259054Y273904*
X257179*
X257317Y137900D02*
Y141650D01*
X259192*
X259817Y141338*
X260130Y141025*
X260442Y140400*
Y139150*
X260130Y138525*
X259817Y138213*
X259192Y137900*
X257317*
X259167Y82270D02*
Y86020D01*
X261355*
X261980Y85708*
X262293Y85083*
X261980Y84458*
X261355Y84145*
X259167*
X263104Y72428D02*
Y76178D01*
X265292*
X265917Y75865*
X266230Y75240*
X265917Y74615*
X265292Y74303*
X263104*
X267041Y82270D02*
Y86020D01*
X269229*
X269854Y85708*
X270167Y85083*
X269854Y84458*
X269229Y84145*
X267041*
X267317Y137900D02*
Y141650D01*
X269192*
X269817Y141338*
X270130Y141025*
X270442Y140400*
Y139150*
X270130Y138525*
X269817Y138213*
X269192Y137900*
X267317*
X267435Y124298D02*
Y128048D01*
X269310*
X269935Y127735*
X270248Y127423*
X270560Y126798*
Y125548*
X270248Y124923*
X269935Y124610*
X269310Y124298*
X267435*
X267907Y189081D02*
Y192831D01*
X271033*
X270407Y190956D02*
X267907D01*
Y189081D02*
X271033D01*
X267907Y249081D02*
Y252831D01*
X271033*
X270407Y250956D02*
X267907D01*
Y249081D02*
X271033D01*
X270804Y564756D02*
X271429Y564443D01*
X271741Y563818*
X271429Y563193*
X270804Y562880*
X268616*
Y566630*
X270804*
X271429Y566318*
X271741Y565693*
X271429Y565068*
X270804Y564756*
X268616*
X270978Y72428D02*
Y76178D01*
X273166*
X273791Y75865*
X274104Y75240*
X273791Y74615*
X273166Y74303*
X270978*
X274915Y82270D02*
Y86020D01*
X277103*
X277728Y85708*
X278041Y85083*
X277728Y84458*
X277103Y84145*
X274915*
X277179Y124298D02*
Y128048D01*
X279054*
X279679Y127735*
X279992Y127423*
X280304Y126798*
Y125548*
X279992Y124923*
X279679Y124610*
X279054Y124298*
X277179*
X277317Y137900D02*
Y141650D01*
X279192*
X279817Y141338*
X280130Y141025*
X280442Y140400*
Y139150*
X280130Y138525*
X279817Y138213*
X279192Y137900*
X277317*
X277770Y316729D02*
Y313917D01*
X278082Y313291*
X278707Y312979*
X279957*
X280582Y313291*
X280895Y313917*
Y316729*
X277770Y334445D02*
Y331633D01*
X278082Y331008*
X278707Y330695*
X279957*
X280582Y331008*
X280895Y331633*
Y334445*
X277907Y189081D02*
Y192831D01*
X281033*
X280407Y190956D02*
X277907D01*
Y189081D02*
X281033D01*
X277907Y249081D02*
Y252831D01*
X281033*
X280407Y250956D02*
X277907D01*
Y249081D02*
X281033D01*
X278852Y72428D02*
Y76178D01*
X281040*
X281665Y75865*
X281978Y75240*
X281665Y74615*
X281040Y74303*
X278852*
X282789Y82270D02*
Y86020D01*
X284977*
X285602Y85708*
X285915Y85083*
X285602Y84458*
X284977Y84145*
X282789*
X286748Y564952D02*
X287374Y564640D01*
X287686Y564015*
X287374Y563390*
X286748Y563077*
X284561*
Y566827*
X286748*
X287374Y566515*
X287686Y565890*
X287374Y565265*
X286748Y564952*
X284561*
X286726Y72428D02*
Y76178D01*
X288914*
X289539Y75865*
X289852Y75240*
X289539Y74615*
X288914Y74303*
X286726*
X286923Y124298D02*
Y128048D01*
X288798*
X289423Y127735*
X289736Y127423*
X290048Y126798*
Y125548*
X289736Y124923*
X289423Y124610*
X288798Y124298*
X286923*
X287317Y137900D02*
Y141650D01*
X289192*
X289817Y141338*
X290130Y141025*
X290442Y140400*
Y139150*
X290130Y138525*
X289817Y138213*
X289192Y137900*
X287317*
X287907Y189081D02*
Y192831D01*
X291033*
X290407Y190956D02*
X287907D01*
Y189081D02*
X291033D01*
X287907Y249081D02*
Y252831D01*
X291033*
X290407Y250956D02*
X287907D01*
Y249081D02*
X291033D01*
X290663Y82270D02*
Y86020D01*
X292851*
X293476Y85708*
X293789Y85083*
X293476Y84458*
X292851Y84145*
X290663*
X294600Y72428D02*
Y76178D01*
X296788*
X297413Y75865*
X297726Y75240*
X297413Y74615*
X296788Y74303*
X294600*
X297317Y137900D02*
Y141650D01*
X299192*
X299817Y141338*
X300130Y141025*
X300442Y140400*
Y139150*
X300130Y138525*
X299817Y138213*
X299192Y137900*
X297317*
X297907Y189081D02*
Y192831D01*
X301033*
X300407Y190956D02*
X297907D01*
Y189081D02*
X301033D01*
X297907Y249081D02*
Y252831D01*
X301033*
X300407Y250956D02*
X297907D01*
Y249081D02*
X301033D01*
X298537Y82270D02*
Y86020D01*
X300725*
X301350Y85708*
X301663Y85083*
X301350Y84458*
X300725Y84145*
X298537*
X302300Y564756D02*
X302925Y564443D01*
X303237Y563818*
X302925Y563193*
X302300Y562880*
X300112*
Y566630*
X302300*
X302925Y566318*
X303237Y565693*
X302925Y565068*
X302300Y564756*
X300112*
X301392Y316729D02*
Y313917D01*
X301704Y313291*
X302329Y312979*
X303579*
X304204Y313291*
X304517Y313917*
Y316729*
X301392Y334445D02*
Y331633D01*
X301704Y331008*
X302329Y330695*
X303579*
X304204Y331008*
X304517Y331633*
Y334445*
X302474Y72428D02*
Y76178D01*
X304662*
X305287Y75865*
X305600Y75240*
X305287Y74615*
X304662Y74303*
X302474*
X306411Y82270D02*
Y86020D01*
X308599*
X309224Y85708*
X309537Y85083*
X309224Y84458*
X308599Y84145*
X306411*
X307907Y189081D02*
Y192831D01*
X311033*
X310407Y190956D02*
X307907D01*
Y189081D02*
X311033D01*
X307907Y249081D02*
Y252831D01*
X311033*
X310407Y250956D02*
X307907D01*
Y249081D02*
X311033D01*
X310348Y72428D02*
Y76178D01*
X312536*
X313161Y75865*
X313474Y75240*
X313161Y74615*
X312536Y74303*
X310348*
X314285Y82270D02*
Y86020D01*
X316473*
X317098Y85708*
X317411Y85083*
X317098Y84458*
X316473Y84145*
X314285*
X316419Y466542D02*
Y470292D01*
X314856D02*
X317981D01*
X316419Y526542D02*
Y530292D01*
X314856D02*
X317981D01*
X317907Y189081D02*
Y192831D01*
X321033*
X320407Y190956D02*
X317907D01*
Y189081D02*
X321033D01*
X317907Y249081D02*
Y252831D01*
X321033*
X320407Y250956D02*
X317907D01*
Y249081D02*
X321033D01*
X318222Y138176D02*
Y141926D01*
X320098*
X320722Y141613*
X321035Y141301*
X321348Y140676*
Y139426*
X321035Y138801*
X320722Y138488*
X320098Y138176*
X318222*
X326419Y466542D02*
Y470292D01*
X324856D02*
X327981D01*
X326419Y526542D02*
Y530292D01*
X324856D02*
X327981D01*
X327907Y189081D02*
Y192831D01*
X331033*
X330407Y190956D02*
X327907D01*
Y189081D02*
X331033D01*
X327907Y249081D02*
Y252831D01*
X331033*
X330407Y250956D02*
X327907D01*
Y249081D02*
X331033D01*
X328222Y138176D02*
Y141926D01*
X330098*
X330722Y141613*
X331035Y141301*
X331348Y140676*
Y139426*
X331035Y138801*
X330722Y138488*
X330098Y138176*
X328222*
X331493Y565248D02*
X332118Y564935D01*
X332430Y564310*
X332118Y563685*
X331493Y563372*
X329305*
Y567122*
X331493*
X332118Y566810*
X332430Y566185*
X332118Y565560*
X331493Y565248*
X329305*
X336419Y466542D02*
Y470292D01*
X334856D02*
X337981D01*
X336419Y526542D02*
Y530292D01*
X334856D02*
X337981D01*
X337907Y51433D02*
Y52683D01*
X338220Y53309*
X338533Y53621*
X339157Y53933*
X339783*
X340407Y53621*
X340720Y53309*
X341033Y52683*
Y51433*
X340720Y50809*
X340407Y50496*
X339783Y50183*
X339157*
X338533Y50496*
X338220Y50809*
X337907Y51433*
X340095Y51121D02*
X341033Y50183D01*
X337907Y189081D02*
Y192831D01*
X341033*
X340407Y190956D02*
X337907D01*
Y189081D02*
X341033D01*
X337907Y249081D02*
Y252831D01*
X341033*
X340407Y250956D02*
X337907D01*
Y249081D02*
X341033D01*
X338222Y138176D02*
Y141926D01*
X340098*
X340722Y141613*
X341035Y141301*
X341348Y140676*
Y139426*
X341035Y138801*
X340722Y138488*
X340098Y138176*
X338222*
X346419Y466542D02*
Y470292D01*
X344856D02*
X347981D01*
X346419Y526542D02*
Y530292D01*
X344856D02*
X347981D01*
X347044Y565248D02*
X347669Y564935D01*
X347981Y564310*
X347669Y563685*
X347044Y563372*
X344856*
Y567122*
X347044*
X347669Y566810*
X347981Y566185*
X347669Y565560*
X347044Y565248*
X344856*
X347907Y189081D02*
Y192831D01*
X351033*
X350407Y190956D02*
X347907D01*
Y189081D02*
X351033D01*
X347907Y249081D02*
Y252831D01*
X351033*
X350407Y250956D02*
X347907D01*
Y249081D02*
X351033D01*
X351210Y270887D02*
X350897Y270575D01*
X350272Y270262*
X349335*
X348710Y270575*
X348397Y270887*
X348085Y271512*
Y272762*
X348397Y273387*
X348710Y273700*
X349335Y274012*
X350272*
X350897Y273700*
X351210Y273387*
X348222Y138176D02*
Y141926D01*
X350098*
X350722Y141613*
X351035Y141301*
X351348Y140676*
Y139426*
X351035Y138801*
X350722Y138488*
X350098Y138176*
X348222*
X357863Y437777D02*
X357551Y437465D01*
X356926Y437152*
X355988*
X355363Y437465*
X355051Y437777*
X354738Y438402*
Y439652*
X355051Y440277*
X355363Y440590*
X355988Y440902*
X356926*
X357551Y440590*
X357863Y440277*
X354856Y466542D02*
Y470292D01*
Y468417D02*
X355794D01*
X357981Y470292*
X355794Y468417D02*
X357981Y466542D01*
X356419D02*
Y470292D01*
X354856D02*
X357981D01*
X356419Y526542D02*
Y530292D01*
X354856D02*
X357981D01*
X355329Y500085D02*
Y503835D01*
X357204*
X357829Y503523*
X358141Y503210*
X358454Y502585*
Y501335*
X358141Y500710*
X357829Y500398*
X357204Y500085*
X355329*
X357907Y189081D02*
Y192831D01*
X361033*
X360407Y190956D02*
X357907D01*
Y189081D02*
X361033D01*
X357907Y252831D02*
Y249081D01*
X361033*
X357907D02*
Y252831D01*
X361033*
X360407Y250956D02*
X357907D01*
Y249081D02*
X361033D01*
X361210Y270887D02*
X360897Y270575D01*
X360272Y270262*
X359335*
X358710Y270575*
X358397Y270887*
X358085Y271512*
Y272762*
X358397Y273387*
X358710Y273700*
X359335Y274012*
X360272*
X360897Y273700*
X361210Y273387*
X362792Y565051D02*
X363417Y564738D01*
X363730Y564113*
X363417Y563488*
X362792Y563176*
X360604*
Y566926*
X362792*
X363417Y566613*
X363730Y565988*
X363417Y565363*
X362792Y565051*
X360604*
X367863Y437777D02*
X367551Y437465D01*
X366926Y437152*
X365988*
X365363Y437465*
X365051Y437777*
X364738Y438402*
Y439652*
X365051Y440277*
X365363Y440590*
X365988Y440902*
X366926*
X367551Y440590*
X367863Y440277*
X366419Y466542D02*
Y470292D01*
X364856D02*
X367981D01*
X366419Y526542D02*
Y530292D01*
X364856D02*
X367981D01*
X365073Y500085D02*
Y503835D01*
X366948*
X367573Y503523*
X367885Y503210*
X368198Y502585*
Y501335*
X367885Y500710*
X367573Y500398*
X366948Y500085*
X365073*
X367907Y189081D02*
Y192831D01*
X371033*
X370407Y190956D02*
X367907D01*
Y189081D02*
X371033D01*
X367907Y249081D02*
Y252831D01*
X371033*
X370407Y250956D02*
X367907D01*
Y249081D02*
X371033D01*
X371584Y167443D02*
X371271Y167130D01*
X370646Y166817*
X369709*
X369084Y167130*
X368771Y167443*
X368459Y168067*
Y169317*
X368771Y169943*
X369084Y170255*
X369709Y170567*
X370646*
X371271Y170255*
X371584Y169943*
X377863Y437777D02*
X377551Y437465D01*
X376926Y437152*
X375988*
X375363Y437465*
X375051Y437777*
X374738Y438402*
Y439652*
X375051Y440277*
X375363Y440590*
X375988Y440902*
X376926*
X377551Y440590*
X377863Y440277*
X376419Y466542D02*
Y470292D01*
X374856D02*
X377981D01*
X376419Y526542D02*
Y530292D01*
X374856D02*
X377981D01*
X375112Y500085D02*
Y503835D01*
X376987*
X377612Y503523*
X377925Y503210*
X378237Y502585*
Y501335*
X377925Y500710*
X377612Y500398*
X376987Y500085*
X375112*
X378382Y565051D02*
X379007Y564738D01*
X379320Y564113*
X379007Y563488*
X378382Y563176*
X376195*
Y566926*
X378382*
X379007Y566613*
X379320Y565988*
X379007Y565363*
X378382Y565051*
X376195*
X377907Y192831D02*
Y189081D01*
X381033*
X377907D02*
Y192831D01*
X381033*
X380407Y190956D02*
X377907D01*
Y189081D02*
X381033D01*
X377907Y249081D02*
Y252831D01*
X381033*
X380407Y250956D02*
X377907D01*
Y249081D02*
X381033D01*
X381584Y167443D02*
X381271Y167130D01*
X380646Y166817*
X379709*
X379084Y167130*
X378771Y167443*
X378459Y168067*
Y169317*
X378771Y169943*
X379084Y170255*
X379709Y170567*
X380646*
X381271Y170255*
X381584Y169943*
X387863Y437777D02*
X387551Y437465D01*
X386926Y437152*
X385988*
X385363Y437465*
X385051Y437777*
X384738Y438402*
Y439652*
X385051Y440277*
X385363Y440590*
X385988Y440902*
X386926*
X387551Y440590*
X387863Y440277*
X386419Y466542D02*
Y470292D01*
X384856D02*
X387981D01*
X386419Y526542D02*
Y530292D01*
X384856D02*
X387981D01*
X384955Y499888D02*
Y503638D01*
X386830*
X387455Y503326*
X387767Y503013*
X388080Y502388*
Y501138*
X387767Y500513*
X387455Y500201*
X386830Y499888*
X384955*
X387907Y189081D02*
Y192831D01*
X391033*
X390407Y190956D02*
X387907D01*
Y189081D02*
X391033D01*
X387907Y249081D02*
Y252831D01*
X391033*
X390407Y250956D02*
X387907D01*
Y249081D02*
X391033D01*
X391156Y101867D02*
Y98117D01*
X394281*
X391352Y108855D02*
Y105105D01*
X394478*
X394091Y564854D02*
X394716Y564541D01*
X395029Y563917*
X394716Y563291*
X394091Y562979*
X391904*
Y566729*
X394091*
X394716Y566417*
X395029Y565791*
X394716Y565167*
X394091Y564854*
X391904*
X394699Y499888D02*
Y503638D01*
X396574*
X397199Y503326*
X397511Y503013*
X397824Y502388*
Y501138*
X397511Y500513*
X397199Y500201*
X396574Y499888*
X394699*
X397863Y437777D02*
X397551Y437465D01*
X396926Y437152*
X395988*
X395363Y437465*
X395051Y437777*
X394738Y438402*
Y439652*
X395051Y440277*
X395363Y440590*
X395988Y440902*
X396926*
X397551Y440590*
X397863Y440277*
X396419Y466542D02*
Y470292D01*
X394856D02*
X397981D01*
X396419Y526542D02*
Y530292D01*
X394856D02*
X397981D01*
X397907Y189081D02*
Y192831D01*
X401033*
X400407Y190956D02*
X397907D01*
Y189081D02*
X401033D01*
X397907Y249081D02*
Y252831D01*
X401033*
X400407Y250956D02*
X397907D01*
Y249081D02*
X401033D01*
X401119Y362000D02*
X401744Y361687D01*
X402056Y361062*
X401744Y360437*
X401119Y360124*
X398931*
Y363874*
X401119*
X401744Y363562*
X402056Y362937*
X401744Y362312*
X401119Y362000*
X398931*
X407863Y437777D02*
X407551Y437465D01*
X406926Y437152*
X405988*
X405363Y437465*
X405051Y437777*
X404738Y438402*
Y439652*
X405051Y440277*
X405363Y440590*
X405988Y440902*
X406926*
X407551Y440590*
X407863Y440277*
X404738Y499888D02*
Y503638D01*
X406613*
X407238Y503326*
X407551Y503013*
X407863Y502388*
Y501138*
X407551Y500513*
X407238Y500201*
X406613Y499888*
X404738*
X406419Y466542D02*
Y470292D01*
X404856D02*
X407981D01*
X406419Y526542D02*
Y530292D01*
X404856D02*
X407981D01*
X406116Y101867D02*
Y98117D01*
X409241*
X410036Y565051D02*
X410661Y564738D01*
X410974Y564113*
X410661Y563488*
X410036Y563176*
X407848*
Y566926*
X410036*
X410661Y566613*
X410974Y565988*
X410661Y565363*
X410036Y565051*
X407848*
X407907Y189081D02*
Y192831D01*
X411033*
X410407Y190956D02*
X407907D01*
Y189081D02*
X411033D01*
X407907Y249081D02*
Y252831D01*
X411033*
X410407Y250956D02*
X407907D01*
Y249081D02*
X411033D01*
X414384Y499790D02*
Y503540D01*
X416259*
X416884Y503228*
X417196Y502915*
X417509Y502290*
Y501040*
X417196Y500415*
X416884Y500102*
X416259Y499790*
X414384*
X416709Y362000D02*
X417334Y361687D01*
X417647Y361062*
X417334Y360437*
X416709Y360124*
X414522*
Y363874*
X416709*
X417334Y363562*
X417647Y362937*
X417334Y362312*
X416709Y362000*
X414522*
X417863Y437777D02*
X417551Y437465D01*
X416926Y437152*
X415988*
X415363Y437465*
X415051Y437777*
X414738Y438402*
Y439652*
X415051Y440277*
X415363Y440590*
X415988Y440902*
X416926*
X417551Y440590*
X417863Y440277*
X416419Y466542D02*
Y470292D01*
X414856D02*
X417981D01*
X416419Y526542D02*
Y530292D01*
X414856D02*
X417981D01*
X417907Y189081D02*
Y192831D01*
X421033*
X420407Y190956D02*
X417907D01*
Y189081D02*
X421033D01*
X417907Y249081D02*
Y252831D01*
X421033*
X420407Y250956D02*
X417907D01*
Y249081D02*
X421033D01*
X425587Y564854D02*
X426212Y564541D01*
X426525Y563917*
X426212Y563291*
X425587Y562979*
X423400*
Y566729*
X425587*
X426212Y566417*
X426525Y565791*
X426212Y565167*
X425587Y564854*
X423400*
X424128Y499790D02*
Y503540D01*
X426003*
X426628Y503228*
X426941Y502915*
X427253Y502290*
Y501040*
X426941Y500415*
X426628Y500102*
X426003Y499790*
X424128*
X427863Y437777D02*
X427551Y437465D01*
X426926Y437152*
X425988*
X425363Y437465*
X425051Y437777*
X424738Y438402*
Y439652*
X425051Y440277*
X425363Y440590*
X425988Y440902*
X426926*
X427551Y440590*
X427863Y440277*
X426419Y466542D02*
Y470292D01*
X424856D02*
X427981D01*
X426419Y526542D02*
Y530292D01*
X424856D02*
X427981D01*
X427278Y108855D02*
Y105105D01*
X430403*
X427907Y189081D02*
Y192831D01*
X431033*
X430407Y190956D02*
X427907D01*
Y189081D02*
X431033D01*
X427907Y249081D02*
Y252831D01*
X431033*
X430407Y250956D02*
X427907D01*
Y249081D02*
X431033D01*
X434167Y499790D02*
Y503540D01*
X436043*
X436667Y503228*
X436980Y502915*
X437293Y502290*
Y501040*
X436980Y500415*
X436667Y500102*
X436043Y499790*
X434167*
X437863Y437777D02*
X437551Y437465D01*
X436926Y437152*
X435988*
X435363Y437465*
X435051Y437777*
X434738Y438402*
Y439652*
X435051Y440277*
X435363Y440590*
X435988Y440902*
X436926*
X437551Y440590*
X437863Y440277*
X436419Y466542D02*
Y470292D01*
X434856D02*
X437981D01*
X436419Y526542D02*
Y530292D01*
X434856D02*
X437981D01*
X437907Y189081D02*
Y192831D01*
X441033*
X440407Y190956D02*
X437907D01*
Y189081D02*
X441033D01*
X437907Y249081D02*
Y252831D01*
X441033*
X440407Y250956D02*
X437907D01*
Y249081D02*
X441033D01*
X441335Y564854D02*
X441960Y564541D01*
X442273Y563917*
X441960Y563291*
X441335Y562979*
X439148*
Y566729*
X441335*
X441960Y566417*
X442273Y565791*
X441960Y565167*
X441335Y564854*
X439148*
X443715Y499790D02*
Y503540D01*
X445590*
X446215Y503228*
X446527Y502915*
X446840Y502290*
Y501040*
X446527Y500415*
X446215Y500102*
X445590Y499790*
X443715*
X444404Y313313D02*
Y317063D01*
X446279*
X446904Y316751*
X447216Y316439*
X447529Y315813*
Y314563*
X447216Y313939*
X446904Y313626*
X446279Y313313*
X444404*
Y323313D02*
Y327063D01*
X446279*
X446904Y326751*
X447216Y326439*
X447529Y325813*
Y324563*
X447216Y323939*
X446904Y323626*
X446279Y323313*
X444404*
X447863Y437777D02*
X447551Y437465D01*
X446926Y437152*
X445988*
X445363Y437465*
X445051Y437777*
X444738Y438402*
Y439652*
X445051Y440277*
X445363Y440590*
X445988Y440902*
X446926*
X447551Y440590*
X447863Y440277*
X446419Y466542D02*
Y470292D01*
X444856D02*
X447981D01*
X446419Y526542D02*
Y530292D01*
X444856D02*
X447981D01*
X447907Y189081D02*
Y192831D01*
X451033*
X450407Y190956D02*
X447907D01*
Y189081D02*
X451033D01*
X447907Y249081D02*
Y252831D01*
X451033*
X450407Y250956D02*
X447907D01*
Y249081D02*
X451033D01*
X456886Y564657D02*
X457511Y564344D01*
X457824Y563720*
X457511Y563094*
X456886Y562782*
X454699*
Y566532*
X456886*
X457511Y566220*
X457824Y565594*
X457511Y564970*
X456886Y564657*
X454699*
X457863Y437777D02*
X457551Y437465D01*
X456926Y437152*
X455988*
X455363Y437465*
X455051Y437777*
X454738Y438402*
Y439652*
X455051Y440277*
X455363Y440590*
X455988Y440902*
X456926*
X457551Y440590*
X457863Y440277*
X456419Y466542D02*
Y470292D01*
X454856D02*
X457981D01*
X456419Y526542D02*
Y530292D01*
X454856D02*
X457981D01*
X457907Y189081D02*
Y192831D01*
X461033*
X460407Y190956D02*
X457907D01*
Y189081D02*
X461033D01*
X457907Y249081D02*
Y252831D01*
X461033*
X460407Y250956D02*
X457907D01*
Y249081D02*
X461033D01*
X481018Y505302D02*
Y509052D01*
X482893*
X483518Y508739*
X483830Y508427*
X484143Y507802*
Y506552*
X483830Y505927*
X483518Y505614*
X482893Y505302*
X481018*
X482396Y122231D02*
Y125981D01*
X484271*
X484896Y125669*
X485208Y125356*
X485521Y124731*
Y123481*
X485208Y122856*
X484896Y122543*
X484271Y122231*
X482396*
X491844Y516522D02*
Y520272D01*
X493720*
X494344Y519960*
X494657Y519647*
X494970Y519022*
Y517772*
X494657Y517147*
X494344Y516835*
X493720Y516522*
X491844*
X492041Y505006D02*
Y508756D01*
Y506881D02*
X492979D01*
X495167Y508756*
X492979Y506881D02*
X495167Y505006D01*
X497181Y309244D02*
X497807Y308931D01*
X498119Y308306*
X497807Y307681*
X497181Y307369*
X494994*
Y311119*
X497181*
X497807Y310806*
X498119Y310181*
X497807Y309556*
X497181Y309244*
X494994*
X495191Y227644D02*
Y231394D01*
X497066*
X497691Y231082*
X498004Y230769*
X498316Y230144*
Y228894*
X498004Y228269*
X497691Y227957*
X497066Y227644*
X495191*
X497378Y324795D02*
X498004Y324482D01*
X498316Y323857*
X498004Y323232*
X497378Y322920*
X495191*
Y326670*
X497378*
X498004Y326357*
X498316Y325732*
X498004Y325107*
X497378Y324795*
X495191*
X497378Y340543D02*
X498004Y340230D01*
X498316Y339606*
X498004Y338980*
X497378Y338668*
X495191*
Y342418*
X497378*
X498004Y342106*
X498316Y341480*
X498004Y340856*
X497378Y340543*
X495191*
X497378Y372039D02*
X498004Y371726D01*
X498316Y371102*
X498004Y370476*
X497378Y370164*
X495191*
Y373914*
X497378*
X498004Y373602*
X498316Y372976*
X498004Y372352*
X497378Y372039*
X495191*
X497575Y356094D02*
X498200Y355781D01*
X498513Y355157*
X498200Y354531*
X497575Y354219*
X495388*
Y357969*
X497575*
X498200Y357657*
X498513Y357031*
X498200Y356407*
X497575Y356094*
X495388*
X497575Y387748D02*
X498200Y387435D01*
X498513Y386810*
X498200Y386185*
X497575Y385872*
X495388*
Y389622*
X497575*
X498200Y389310*
X498513Y388685*
X498200Y388060*
X497575Y387748*
X495388*
X497575Y403338D02*
X498200Y403026D01*
X498513Y402401*
X498200Y401776*
X497575Y401463*
X495388*
Y405213*
X497575*
X498200Y404901*
X498513Y404276*
X498200Y403651*
X497575Y403338*
X495388*
X497772Y419086D02*
X498397Y418774D01*
X498710Y418149*
X498397Y417524*
X497772Y417211*
X495585*
Y420961*
X497772*
X498397Y420649*
X498710Y420024*
X498397Y419399*
X497772Y419086*
X495585*
X497772Y434637D02*
X498397Y434325D01*
X498710Y433700*
X498397Y433075*
X497772Y432762*
X495585*
Y436512*
X497772*
X498397Y436200*
X498710Y435575*
X498397Y434950*
X497772Y434637*
X495585*
X499128Y505006D02*
Y508756D01*
Y506881D02*
X500065D01*
X502253Y508756*
X500065Y506881D02*
X502253Y505006D01*
X506215D02*
Y508756D01*
Y506881D02*
X507152D01*
X509340Y508756*
X507152Y506881D02*
X509340Y505006D01*
X532494Y281552D02*
Y282802D01*
X532807Y283427*
X533119Y283739*
X533744Y284052*
X534369*
X534994Y283739*
X535307Y283427*
X535619Y282802*
Y281552*
X535307Y280927*
X534994Y280614*
X534369Y280302*
X533744*
X533119Y280614*
X532807Y280927*
X532494Y281552*
X532593Y25744D02*
Y26994D01*
X532905Y27620*
X533218Y27932*
X533843Y28244*
X534468*
X535093Y27932*
X535405Y27620*
X535718Y26994*
Y25744*
X535405Y25120*
X535093Y24807*
X534468Y24494*
X533843*
X533218Y24807*
X532905Y25120*
X532593Y25744*
X532789Y593067D02*
Y594317D01*
X533102Y594943*
X533415Y595255*
X534039Y595567*
X534665*
X535289Y595255*
X535602Y594943*
X535915Y594317*
Y593067*
X535602Y592443*
X535289Y592130*
X534665Y591817*
X534039*
X533415Y592130*
X533102Y592443*
X532789Y593067*
X549719Y546496D02*
Y550246D01*
Y548371D02*
X552844D01*
Y546496D02*
Y550246D01*
X579344Y316010D02*
Y319760D01*
X581220*
X581844Y319448*
X582157Y319135*
X582470Y318510*
Y317260*
X582157Y316635*
X581844Y316323*
X581220Y316010*
X579344*
Y326010D02*
Y329760D01*
X581220*
X581844Y329448*
X582157Y329135*
X582470Y328510*
Y327260*
X582157Y326635*
X581844Y326323*
X581220Y326010*
X579344*
Y336010D02*
Y339760D01*
X581220*
X581844Y339448*
X582157Y339135*
X582470Y338510*
Y337260*
X582157Y336635*
X581844Y336323*
X581220Y336010*
X579344*
X587120Y546496D02*
Y550246D01*
Y548371D02*
X590245D01*
Y546496D02*
Y550246D01*
X590762Y254613D02*
Y258363D01*
X592637*
X593262Y258050*
X593574Y257738*
X593887Y257113*
Y255863*
X593574Y255238*
X593262Y254925*
X592637Y254613*
X590762*
X601505Y172561D02*
X601193Y172248D01*
X600567Y171935*
X599630*
X599005Y172248*
X598693Y172561*
X598380Y173185*
Y174435*
X598693Y175061*
X599005Y175373*
X599630Y175685*
X600567*
X601193Y175373*
X601505Y175061*
Y197757D02*
X601193Y197445D01*
X600567Y197132*
X599630*
X599005Y197445*
X598693Y197757*
X598380Y198382*
Y199632*
X598693Y200257*
X599005Y200570*
X599630Y200882*
X600567*
X601193Y200570*
X601505Y200257*
Y222462D02*
X601193Y222150D01*
X600567Y221837*
X599630*
X599005Y222150*
X598693Y222462*
X598380Y223087*
Y224337*
X598693Y224962*
X599005Y225275*
X599630Y225587*
X600567*
X601193Y225275*
X601505Y224962*
X600762Y254613D02*
Y258363D01*
X602637*
X603262Y258050*
X603574Y257738*
X603887Y257113*
Y255863*
X603574Y255238*
X603262Y254925*
X602637Y254613*
X600762*
X608690Y545198D02*
X608378Y544886D01*
X607752Y544573*
X606815*
X606190Y544886*
X605878Y545198*
X605565Y545823*
Y547073*
X605878Y547698*
X606190Y548011*
X606815Y548323*
X607752*
X608378Y548011*
X608690Y547698*
X605841Y116227D02*
Y119977D01*
X607716*
X608341Y119665*
X608653Y119352*
X608966Y118727*
Y117477*
X608653Y116852*
X608341Y116539*
X607716Y116227*
X605841*
X611505Y172561D02*
X611193Y172248D01*
X610567Y171935*
X609630*
X609005Y172248*
X608693Y172561*
X608380Y173185*
Y174435*
X608693Y175061*
X609005Y175373*
X609630Y175685*
X610567*
X611193Y175373*
X611505Y175061*
Y197757D02*
X611193Y197445D01*
X610567Y197132*
X609630*
X609005Y197445*
X608693Y197757*
X608380Y198382*
Y199632*
X608693Y200257*
X609005Y200570*
X609630Y200882*
X610567*
X611193Y200570*
X611505Y200257*
Y222462D02*
X611193Y222150D01*
X610567Y221837*
X609630*
X609005Y222150*
X608693Y222462*
X608380Y223087*
Y224337*
X608693Y224962*
X609005Y225275*
X609630Y225587*
X610567*
X611193Y225275*
X611505Y224962*
X610762Y254613D02*
Y258363D01*
X612637*
X613262Y258050*
X613574Y257738*
X613887Y257113*
Y255863*
X613574Y255238*
X613262Y254925*
X612637Y254613*
X610762*
X617607Y505435D02*
X617295Y505122D01*
X616670Y504809*
X615732*
X615107Y505122*
X614795Y505435*
X614482Y506059*
Y507309*
X614795Y507935*
X615107Y508247*
X615732Y508559*
X616670*
X617295Y508247*
X617607Y507935*
Y525435D02*
X617295Y525122D01*
X616670Y524809*
X615732*
X615107Y525122*
X614795Y525435*
X614482Y526059*
Y527309*
X614795Y527935*
X615107Y528247*
X615732Y528559*
X616670*
X617295Y528247*
X617607Y527935*
X614974Y461020D02*
Y458208D01*
X615287Y457583*
X615912Y457270*
X617162*
X617787Y457583*
X618100Y458208*
Y461020*
X614974Y487300D02*
Y484487D01*
X615287Y483862*
X615912Y483550*
X617162*
X617787Y483862*
X618100Y484487*
Y487300*
X615841Y116227D02*
Y119977D01*
X617716*
X618341Y119665*
X618653Y119352*
X618966Y118727*
Y117477*
X618653Y116852*
X618341Y116539*
X617716Y116227*
X615841*
X615959Y97329D02*
Y101079D01*
X617834*
X618459Y100767*
X618771Y100454*
X619084Y99829*
Y98579*
X618771Y97954*
X618459Y97642*
X617834Y97329*
X615959*
X620762Y254613D02*
Y258363D01*
X622637*
X623262Y258050*
X623574Y257738*
X623887Y257113*
Y255863*
X623574Y255238*
X623262Y254925*
X622637Y254613*
X620762*
X628690Y545198D02*
X628378Y544886D01*
X627752Y544573*
X626815*
X626190Y544886*
X625878Y545198*
X625565Y545823*
Y547073*
X625878Y547698*
X626190Y548011*
X626815Y548323*
X627752*
X628378Y548011*
X628690Y547698*
X625703Y97329D02*
Y101079D01*
X627578*
X628203Y100767*
X628515Y100454*
X628828Y99829*
Y98579*
X628515Y97954*
X628203Y97642*
X627578Y97329*
X625703*
X625841Y116227D02*
Y119977D01*
X627716*
X628341Y119665*
X628653Y119352*
X628966Y118727*
Y117477*
X628653Y116852*
X628341Y116539*
X627716Y116227*
X625841*
X627159Y166246D02*
Y169996D01*
X630285*
X629659Y168122D02*
X627159D01*
Y166246D02*
X630285D01*
X627159Y226246D02*
Y229996D01*
X630285*
X629659Y228122D02*
X627159D01*
Y226246D02*
X630285D01*
X630132Y364849D02*
Y368599D01*
X632007*
X632632Y368287*
X632944Y367974*
X633257Y367349*
Y366099*
X632944Y365474*
X632632Y365161*
X632007Y364849*
X630132*
X635447Y97329D02*
Y101079D01*
X637322*
X637947Y100767*
X638259Y100454*
X638572Y99829*
Y98579*
X638259Y97954*
X637947Y97642*
X637322Y97329*
X635447*
X635841Y116227D02*
Y119977D01*
X637716*
X638341Y119665*
X638653Y119352*
X638966Y118727*
Y117477*
X638653Y116852*
X638341Y116539*
X637716Y116227*
X635841*
X637022Y293894D02*
Y291082D01*
X637334Y290457*
X637959Y290144*
X639209*
X639834Y290457*
X640147Y291082*
Y293894*
X637022Y311611D02*
Y308798D01*
X637334Y308173*
X637959Y307861*
X639209*
X639834Y308173*
X640147Y308798*
Y311611*
X637159Y166246D02*
Y169996D01*
X640285*
X639659Y168122D02*
X637159D01*
Y166246D02*
X640285D01*
X637159Y226246D02*
Y229996D01*
X640285*
X639659Y228122D02*
X637159D01*
Y226246D02*
X640285D01*
X640132Y364849D02*
Y368599D01*
X642007*
X642632Y368287*
X642944Y367974*
X643257Y367349*
Y366099*
X642944Y365474*
X642632Y365161*
X642007Y364849*
X640132*
X641077Y489160D02*
Y492910D01*
X643264*
X643889Y492598*
X644202Y491972*
X643889Y491348*
X643264Y491035*
X641077*
X643264D02*
X644202Y489160D01*
X645841Y116227D02*
Y119977D01*
X647716*
X648341Y119665*
X648653Y119352*
X648966Y118727*
Y117477*
X648653Y116852*
X648341Y116539*
X647716Y116227*
X645841*
X647159Y166246D02*
Y169996D01*
X650285*
X649659Y168122D02*
X647159D01*
Y166246D02*
X650285D01*
X647159Y226246D02*
Y229996D01*
X650285*
X649659Y228122D02*
X647159D01*
Y226246D02*
X650285D01*
X656018Y532322D02*
Y536072D01*
Y534198D02*
X659143D01*
Y532322D02*
Y536072D01*
X657159Y166246D02*
Y169996D01*
X660285*
X659659Y168122D02*
X657159D01*
Y166246D02*
X660285D01*
X657159Y226246D02*
Y229996D01*
X660285*
X659659Y228122D02*
X657159D01*
Y226246D02*
X660285D01*
X660644Y293894D02*
Y291082D01*
X660956Y290457*
X661581Y290144*
X662831*
X663456Y290457*
X663769Y291082*
Y293894*
X660644Y311611D02*
Y308798D01*
X660956Y308173*
X661581Y307861*
X662831*
X663456Y308173*
X663769Y308798*
Y311611*
X662711Y547677D02*
Y551427D01*
Y549552D02*
X665836D01*
Y547677D02*
Y551427D01*
X667159Y166246D02*
Y169996D01*
X670285*
X669659Y168122D02*
X667159D01*
Y166246D02*
X670285D01*
X667159Y226246D02*
Y229996D01*
X670285*
X669659Y228122D02*
X667159D01*
Y226246D02*
X670285D01*
X669404Y532322D02*
Y536072D01*
Y534198D02*
X672529D01*
Y532322D02*
Y536072D01*
X671035Y594347D02*
Y595597D01*
X671347Y596222*
X671660Y596535*
X672285Y596847*
X672910*
X673535Y596535*
X673847Y596222*
X674160Y595597*
Y594347*
X673847Y593722*
X673535Y593409*
X672910Y593097*
X672285*
X671660Y593409*
X671347Y593722*
X671035Y594347*
X674930Y512226D02*
X674618Y511913D01*
X673993Y511601*
X673055*
X672430Y511913*
X672118Y512226*
X671805Y512851*
Y514101*
X672118Y514726*
X672430Y515039*
X673055Y515351*
X673993*
X674618Y515039*
X674930Y514726*
X676096Y547677D02*
Y551427D01*
Y549552D02*
X679222D01*
Y547677D02*
Y551427D01*
X677159Y166246D02*
Y169996D01*
X680285*
X679659Y168122D02*
X677159D01*
Y166246D02*
X680285D01*
X677159Y226246D02*
Y229996D01*
X680285*
X679659Y228122D02*
X677159D01*
Y226246D02*
X680285D01*
X677474Y116325D02*
Y120075D01*
X679350*
X679974Y119763*
X680287Y119450*
X680600Y118825*
Y117575*
X680287Y116950*
X679974Y116638*
X679350Y116325*
X677474*
X682789Y532322D02*
Y536072D01*
Y534198D02*
X685915D01*
Y532322D02*
Y536072D01*
X687159Y166246D02*
Y169996D01*
X690285*
X689659Y168122D02*
X687159D01*
Y166246D02*
X690285D01*
X687159Y226246D02*
Y229996D01*
X690285*
X689659Y228122D02*
X687159D01*
Y226246D02*
X690285D01*
X687474Y116325D02*
Y120075D01*
X689350*
X689974Y119763*
X690287Y119450*
X690600Y118825*
Y117575*
X690287Y116950*
X689974Y116638*
X689350Y116325*
X687474*
X694930Y512226D02*
X694618Y511913D01*
X693993Y511601*
X693055*
X692430Y511913*
X692118Y512226*
X691805Y512851*
Y514101*
X692118Y514726*
X692430Y515039*
X693055Y515351*
X693993*
X694618Y515039*
X694930Y514726*
X695959Y430528D02*
Y427716D01*
X696271Y427091*
X696896Y426778*
X698146*
X698771Y427091*
X699084Y427716*
Y430528*
X695959Y460528D02*
Y457716D01*
X696271Y457091*
X696896Y456778*
X698146*
X698771Y457091*
X699084Y457716*
Y460528*
X696057Y379150D02*
Y376338D01*
X696370Y375713*
X696994Y375400*
X698244*
X698870Y375713*
X699182Y376338*
Y379150*
X696057Y409150D02*
Y406338D01*
X696370Y405713*
X696994Y405400*
X698244*
X698870Y405713*
X699182Y406338*
Y409150*
X697159Y166246D02*
Y169996D01*
X700285*
X699659Y168122D02*
X697159D01*
Y166246D02*
X700285D01*
X697159Y226246D02*
Y229996D01*
X700285*
X699659Y228122D02*
X697159D01*
Y226246D02*
X700285D01*
X697474Y116325D02*
Y120075D01*
X699350*
X699974Y119763*
X700287Y119450*
X700600Y118825*
Y117575*
X700287Y116950*
X699974Y116638*
X699350Y116325*
X697474*
X701077Y489160D02*
Y492910D01*
X703264*
X703889Y492598*
X704202Y491972*
X703889Y491348*
X703264Y491035*
X701077*
X703264D02*
X704202Y489160D01*
X707159Y166246D02*
Y169996D01*
X710285*
X709659Y168122D02*
X707159D01*
Y166246D02*
X710285D01*
X707159Y226246D02*
Y229996D01*
X710285*
X709659Y228122D02*
X707159D01*
Y226246D02*
X710285D01*
X710462Y248053D02*
X710149Y247740D01*
X709524Y247428*
X708587*
X707962Y247740*
X707649Y248053*
X707337Y248678*
Y249928*
X707649Y250553*
X707962Y250865*
X708587Y251178*
X709524*
X710149Y250865*
X710462Y250553*
X707474Y116325D02*
Y120075D01*
X709350*
X709974Y119763*
X710287Y119450*
X710600Y118825*
Y117575*
X710287Y116950*
X709974Y116638*
X709350Y116325*
X707474*
X717686Y522246D02*
X717374Y521933D01*
X716748Y521620*
X715811*
X715186Y521933*
X714874Y522246*
X714561Y522870*
Y524120*
X714874Y524746*
X715186Y525058*
X715811Y525370*
X716748*
X717374Y525058*
X717686Y524746*
Y542246D02*
X717374Y541933D01*
X716748Y541620*
X715811*
X715186Y541933*
X714874Y542246*
X714561Y542870*
Y544120*
X714874Y544746*
X715186Y545058*
X715811Y545370*
X716748*
X717374Y545058*
X717686Y544746*
X717159Y166246D02*
Y169996D01*
X720285*
X719659Y168122D02*
X717159D01*
Y166246D02*
X720285D01*
X717159Y229996D02*
Y226246D01*
X720285*
X717159D02*
Y229996D01*
X720285*
X719659Y228122D02*
X717159D01*
Y226246D02*
X720285D01*
X720462Y248053D02*
X720149Y247740D01*
X719524Y247428*
X718587*
X717962Y247740*
X717649Y248053*
X717337Y248678*
Y249928*
X717649Y250553*
X717962Y250865*
X718587Y251178*
X719524*
X720149Y250865*
X720462Y250553*
X728828Y522364D02*
X728515Y522051D01*
X727890Y521739*
X726953*
X726328Y522051*
X726015Y522364*
X725703Y522989*
Y524239*
X726015Y524864*
X726328Y525176*
X726953Y525489*
X727890*
X728515Y525176*
X728828Y524864*
Y551891D02*
X728515Y551579D01*
X727890Y551266*
X726953*
X726328Y551579*
X726015Y551891*
X725703Y552516*
Y553766*
X726015Y554391*
X726328Y554704*
X726953Y555016*
X727890*
X728515Y554704*
X728828Y554391*
X725959Y430528D02*
Y427716D01*
X726271Y427091*
X726896Y426778*
X728146*
X728771Y427091*
X729084Y427716*
Y430528*
X725959Y460528D02*
Y457716D01*
X726271Y457091*
X726896Y456778*
X728146*
X728771Y457091*
X729084Y457716*
Y460528*
X726057Y379150D02*
Y376338D01*
X726370Y375713*
X726994Y375400*
X728244*
X728870Y375713*
X729182Y376338*
Y379150*
X726057Y409150D02*
Y406338D01*
X726370Y405713*
X726994Y405400*
X728244*
X728870Y405713*
X729182Y406338*
Y409150*
X727159Y166246D02*
Y169996D01*
X730285*
X729659Y168122D02*
X727159D01*
Y166246D02*
X730285D01*
X727159Y226246D02*
Y229996D01*
X730285*
X729659Y228122D02*
X727159D01*
Y226246D02*
X730285D01*
X730836Y144608D02*
X730523Y144295D01*
X729898Y143983*
X728961*
X728336Y144295*
X728023Y144608*
X727711Y145233*
Y146483*
X728023Y147108*
X728336Y147420*
X728961Y147733*
X729898*
X730523Y147420*
X730836Y147108*
X737159Y169996D02*
Y166246D01*
X740285*
X737159D02*
Y169996D01*
X740285*
X739659Y168122D02*
X737159D01*
Y166246D02*
X740285D01*
X737159Y226246D02*
Y229996D01*
X740285*
X739659Y228122D02*
X737159D01*
Y226246D02*
X740285D01*
X740836Y144608D02*
X740523Y144295D01*
X739898Y143983*
X738961*
X738336Y144295*
X738023Y144608*
X737711Y145233*
Y146483*
X738023Y147108*
X738336Y147420*
X738961Y147733*
X739898*
X740523Y147420*
X740836Y147108*
X745959Y430528D02*
Y427716D01*
X746271Y427091*
X746896Y426778*
X748146*
X748771Y427091*
X749084Y427716*
Y430528*
X745959Y460528D02*
Y457716D01*
X746271Y457091*
X746896Y456778*
X748146*
X748771Y457091*
X749084Y457716*
Y460528*
X746057Y379150D02*
Y376338D01*
X746370Y375713*
X746994Y375400*
X748244*
X748870Y375713*
X749182Y376338*
Y379150*
X746057Y409150D02*
Y406338D01*
X746370Y405713*
X746994Y405400*
X748244*
X748870Y405713*
X749182Y406338*
Y409150*
X747159Y166246D02*
Y169996D01*
X750285*
X749659Y168122D02*
X747159D01*
Y166246D02*
X750285D01*
X747159Y226246D02*
Y229996D01*
X750285*
X749659Y228122D02*
X747159D01*
Y226246D02*
X750285D01*
X756805Y51729D02*
Y52979D01*
X757118Y53604*
X757430Y53917*
X758055Y54229*
X758680*
X759305Y53917*
X759618Y53604*
X759930Y52979*
Y51729*
X759618Y51104*
X759305Y50791*
X758680Y50479*
X758055*
X757430Y50791*
X757118Y51104*
X756805Y51729*
X758993Y51417D02*
X759930Y50479D01*
X757159Y166246D02*
Y169996D01*
X760285*
X759659Y168122D02*
X757159D01*
Y166246D02*
X760285D01*
X757159Y226246D02*
Y229996D01*
X760285*
X759659Y228122D02*
X757159D01*
Y226246D02*
X760285D01*
X758183Y90056D02*
Y86306D01*
X761308*
X758183Y99209D02*
Y95459D01*
X761308*
X765959Y430528D02*
Y427716D01*
X766271Y427091*
X766896Y426778*
X768146*
X768771Y427091*
X769084Y427716*
Y430528*
X765959Y460528D02*
Y457716D01*
X766271Y457091*
X766896Y456778*
X768146*
X768771Y457091*
X769084Y457716*
Y460528*
X766057Y379150D02*
Y376338D01*
X766370Y375713*
X766994Y375400*
X768244*
X768870Y375713*
X769182Y376338*
Y379150*
X766057Y409150D02*
Y406338D01*
X766370Y405713*
X766994Y405400*
X768244*
X768870Y405713*
X769182Y406338*
Y409150*
X767159Y166246D02*
Y169996D01*
X770285*
X769659Y168122D02*
X767159D01*
Y166246D02*
X770285D01*
X767159Y226246D02*
Y229996D01*
X770285*
X769659Y228122D02*
X767159D01*
Y226246D02*
X770285D01*
X768518Y99209D02*
Y95459D01*
X771643*
X777159Y166246D02*
Y169996D01*
X780285*
X779659Y168122D02*
X777159D01*
Y166246D02*
X780285D01*
X777159Y226246D02*
Y229996D01*
X780285*
X779659Y228122D02*
X777159D01*
Y226246D02*
X780285D01*
X781608Y72723D02*
Y76473D01*
X783796*
X784421Y76161*
X784733Y75535*
X784421Y74911*
X783796Y74598*
X781608*
X785545Y82565D02*
Y86315D01*
X787733*
X788358Y86003*
X788670Y85378*
X788358Y84753*
X787733Y84441*
X785545*
X787159Y166246D02*
Y169996D01*
X790285*
X789659Y168122D02*
X787159D01*
Y166246D02*
X790285D01*
X787159Y226246D02*
Y229996D01*
X790285*
X789659Y228122D02*
X787159D01*
Y226246D02*
X790285D01*
X789482Y72723D02*
Y76473D01*
X791670*
X792295Y76161*
X792607Y75535*
X792295Y74911*
X791670Y74598*
X789482*
X793419Y82565D02*
Y86315D01*
X795607*
X796232Y86003*
X796544Y85378*
X796232Y84753*
X795607Y84441*
X793419*
X797159Y166246D02*
Y169996D01*
X800285*
X799659Y168122D02*
X797159D01*
Y166246D02*
X800285D01*
X797159Y226246D02*
Y229996D01*
X800285*
X799659Y228122D02*
X797159D01*
Y226246D02*
X800285D01*
X797356Y72723D02*
Y76473D01*
X799544*
X800169Y76161*
X800481Y75535*
X800169Y74911*
X799544Y74598*
X797356*
X801293Y82565D02*
Y86315D01*
X803481*
X804106Y86003*
X804419Y85378*
X804106Y84753*
X803481Y84441*
X801293*
X805230Y72723D02*
Y76473D01*
X807418*
X808043Y76161*
X808356Y75535*
X808043Y74911*
X807418Y74598*
X805230*
X807159Y166246D02*
Y169996D01*
X810285*
X809659Y168122D02*
X807159D01*
Y166246D02*
X810285D01*
X807159Y226246D02*
Y229996D01*
X810285*
X809659Y228122D02*
X807159D01*
Y226246D02*
X810285D01*
X809167Y82565D02*
Y86315D01*
X811355*
X811980Y86003*
X812293Y85378*
X811980Y84753*
X811355Y84441*
X809167*
X813104Y72723D02*
Y76473D01*
X815292*
X815917Y76161*
X816230Y75535*
X815917Y74911*
X815292Y74598*
X813104*
X817489Y540769D02*
X817177Y540457D01*
X816552Y540144*
X815614*
X814989Y540457*
X814677Y540769*
X814364Y541394*
Y542644*
X814677Y543269*
X814989Y543582*
X815614Y543894*
X816552*
X817177Y543582*
X817489Y543269*
Y550769D02*
X817177Y550457D01*
X816552Y550144*
X815614*
X814989Y550457*
X814677Y550769*
X814364Y551394*
Y552644*
X814677Y553269*
X814989Y553582*
X815614Y553894*
X816552*
X817177Y553582*
X817489Y553269*
X814837Y576847D02*
X816399Y573097D01*
X817962Y576847*
X817041Y82565D02*
Y86315D01*
X819229*
X819854Y86003*
X820167Y85378*
X819854Y84753*
X819229Y84441*
X817041*
X817159Y166246D02*
Y169996D01*
X820285*
X819659Y168122D02*
X817159D01*
Y166246D02*
X820285D01*
X817159Y226246D02*
Y229996D01*
X820285*
X819659Y228122D02*
X817159D01*
Y226246D02*
X820285D01*
X820978Y72723D02*
Y76473D01*
X823166*
X823791Y76161*
X824104Y75535*
X823791Y74911*
X823166Y74598*
X820978*
X824837Y576847D02*
X826399Y573097D01*
X827962Y576847*
X824915Y82565D02*
Y86315D01*
X827103*
X827728Y86003*
X828041Y85378*
X827728Y84753*
X827103Y84441*
X824915*
X828852Y72723D02*
Y76473D01*
X831040*
X831665Y76161*
X831978Y75535*
X831665Y74911*
X831040Y74598*
X828852*
X832789Y82565D02*
Y86315D01*
X834977*
X835602Y86003*
X835915Y85378*
X835602Y84753*
X834977Y84441*
X832789*
X834837Y576847D02*
X836399Y573097D01*
X837962Y576847*
X836726Y72723D02*
Y76473D01*
X838914*
X839539Y76161*
X839852Y75535*
X839539Y74911*
X838914Y74598*
X836726*
X840663Y82565D02*
Y86315D01*
X842851*
X843476Y86003*
X843789Y85378*
X843476Y84753*
X842851Y84441*
X840663*
X842927Y273845D02*
Y277595D01*
X844802*
X845427Y277283*
X845740Y276970*
X846052Y276345*
Y275095*
X845740Y274470*
X845427Y274157*
X844802Y273845*
X842927*
Y283845D02*
Y287595D01*
X844802*
X845427Y287283*
X845740Y286970*
X846052Y286345*
Y285095*
X845740Y284470*
X845427Y284157*
X844802Y283845*
X842927*
X847489Y540769D02*
X847177Y540457D01*
X846552Y540144*
X845614*
X844989Y540457*
X844677Y540769*
X844364Y541394*
Y542644*
X844677Y543269*
X844989Y543582*
X845614Y543894*
X846552*
X847177Y543582*
X847489Y543269*
Y550769D02*
X847177Y550457D01*
X846552Y550144*
X845614*
X844989Y550457*
X844677Y550769*
X844364Y551394*
Y552644*
X844677Y553269*
X844989Y553582*
X845614Y553894*
X846552*
X847177Y553582*
X847489Y553269*
X844600Y72723D02*
Y76473D01*
X846788*
X847413Y76161*
X847726Y75535*
X847413Y74911*
X846788Y74598*
X844600*
X844837Y576847D02*
X846399Y573097D01*
X847962Y576847*
X848537Y82565D02*
Y86315D01*
X850725*
X851350Y86003*
X851663Y85378*
X851350Y84753*
X850725Y84441*
X848537*
X854738Y229426D02*
Y225676D01*
X857863*
X860179Y492054D02*
Y493929D01*
X858616Y495804*
X860179Y493929D02*
X861741Y495804D01*
X867312Y572009D02*
X867000Y571697D01*
X866374Y571384*
X865437*
X864812Y571697*
X864500Y572009*
X864187Y572634*
Y573884*
X864500Y574509*
X864812Y574822*
X865437Y575134*
X866374*
X867000Y574822*
X867312Y574509*
Y592009D02*
X867000Y591697D01*
X866374Y591384*
X865437*
X864812Y591697*
X864500Y592009*
X864187Y592634*
Y593884*
X864500Y594509*
X864812Y594822*
X865437Y595134*
X866374*
X867000Y594822*
X867312Y594509*
X870179Y482959D02*
Y484834D01*
X868616Y486709*
X870179Y484834D02*
X871741Y486709D01*
X870474Y501857D02*
Y503732D01*
X868911Y505607*
X870474Y503732D02*
X872037Y505607D01*
X872765Y522069D02*
X872452Y521756D01*
X871827Y521443*
X870890*
X870265Y521756*
X869952Y522069*
X869640Y522693*
Y523943*
X869952Y524569*
X870265Y524881*
X870890Y525193*
X871827*
X872452Y524881*
X872765Y524569*
X872159Y51729D02*
Y52979D01*
X872472Y53604*
X872785Y53917*
X873409Y54229*
X874035*
X874659Y53917*
X874972Y53604*
X875285Y52979*
Y51729*
X874972Y51104*
X874659Y50791*
X874035Y50479*
X873409*
X872785Y50791*
X872472Y51104*
X872159Y51729*
X874347Y51417D02*
X875285Y50479D01*
X874719Y147526D02*
Y151276D01*
X876594*
X877219Y150964*
X877531Y150651*
X877844Y150026*
Y148776*
X877531Y148151*
X877219Y147839*
X876594Y147526*
X874719*
X892765Y522069D02*
X892452Y521756D01*
X891827Y521443*
X890890*
X890265Y521756*
X889952Y522069*
X889640Y522693*
Y523943*
X889952Y524569*
X890265Y524881*
X890890Y525193*
X891827*
X892452Y524881*
X892765Y524569*
X892730Y545941D02*
X895856D01*
X892730Y542191*
X895856*
X892730Y555941D02*
X895856D01*
X892730Y552191*
X895856*
X892730Y565941D02*
X895856D01*
X892730Y562191*
X895856*
X895954Y470376D02*
X895641Y470063D01*
X895016Y469750*
X894079*
X893454Y470063*
X893141Y470376*
X892829Y471000*
Y472250*
X893141Y472876*
X893454Y473188*
X894079Y473500*
X895016*
X895641Y473188*
X895954Y472876*
Y510376D02*
X895641Y510063D01*
X895016Y509750*
X894079*
X893454Y510063*
X893141Y510376*
X892829Y511000*
Y512250*
X893141Y512876*
X893454Y513188*
X894079Y513500*
X895016*
X895641Y513188*
X895954Y512876*
X908697Y182669D02*
X909322Y182356D01*
X909635Y181731*
X909322Y181106*
X908697Y180794*
X906510*
Y184544*
X908697*
X909322Y184231*
X909635Y183606*
X909322Y182981*
X908697Y182669*
X906510*
X908796Y244283D02*
X909421Y243970D01*
X909733Y243346*
X909421Y242720*
X908796Y242408*
X906608*
Y246158*
X908796*
X909421Y245846*
X909733Y245220*
X909421Y244596*
X908796Y244283*
X906608*
X908796Y260031D02*
X909421Y259719D01*
X909733Y259094*
X909421Y258469*
X908796Y258156*
X906608*
Y261906*
X908796*
X909421Y261594*
X909733Y260969*
X909421Y260344*
X908796Y260031*
X906608*
X908796Y291527D02*
X909421Y291215D01*
X909733Y290590*
X909421Y289965*
X908796Y289652*
X906608*
Y293402*
X908796*
X909421Y293090*
X909733Y292465*
X909421Y291840*
X908796Y291527*
X906608*
X908894Y166724D02*
X909519Y166411D01*
X909832Y165787*
X909519Y165161*
X908894Y164849*
X906707*
Y168599*
X908894*
X909519Y168287*
X909832Y167661*
X909519Y167037*
X908894Y166724*
X906707*
X908894Y229027D02*
X909519Y228715D01*
X909832Y228090*
X909519Y227465*
X908894Y227152*
X906707*
Y230902*
X908894*
X909519Y230590*
X909832Y229965*
X909519Y229340*
X908894Y229027*
X906707*
X908993Y275582D02*
X909618Y275270D01*
X909930Y274645*
X909618Y274020*
X908993Y273707*
X906805*
Y277457*
X908993*
X909618Y277145*
X909930Y276520*
X909618Y275895*
X908993Y275582*
X906805*
X908993Y307236D02*
X909618Y306923D01*
X909930Y306298*
X909618Y305673*
X908993Y305361*
X906805*
Y309111*
X908993*
X909618Y308798*
X909930Y308173*
X909618Y307548*
X908993Y307236*
X906805*
X908993Y322826D02*
X909618Y322514D01*
X909930Y321889*
X909618Y321264*
X908993Y320951*
X906805*
Y324701*
X908993*
X909618Y324389*
X909930Y323764*
X909618Y323139*
X908993Y322826*
X906805*
X909189Y338574D02*
X909815Y338262D01*
X910127Y337637*
X909815Y337012*
X909189Y336699*
X907002*
Y340449*
X909189*
X909815Y340137*
X910127Y339512*
X909815Y338887*
X909189Y338574*
X907002*
X909189Y354126D02*
X909815Y353813D01*
X910127Y353188*
X909815Y352563*
X909189Y352250*
X907002*
Y356000*
X909189*
X909815Y355688*
X910127Y355063*
X909815Y354438*
X909189Y354126*
X907002*
X909583Y378338D02*
X910208Y378026D01*
X910521Y377401*
X910208Y376776*
X909583Y376463*
X907396*
Y380213*
X909583*
X910208Y379901*
X910521Y379276*
X910208Y378651*
X909583Y378338*
X907396*
X909780Y393889D02*
X910405Y393577D01*
X910718Y392952*
X910405Y392327*
X909780Y392014*
X907593*
Y395764*
X909780*
X910405Y395452*
X910718Y394827*
X910405Y394202*
X909780Y393889*
X907593*
X909780Y409637D02*
X910405Y409325D01*
X910718Y408700*
X910405Y408075*
X909780Y407762*
X907593*
Y411512*
X909780*
X910405Y411200*
X910718Y410575*
X910405Y409950*
X909780Y409637*
X907593*
X909780Y441133D02*
X910405Y440821D01*
X910718Y440196*
X910405Y439571*
X909780Y439258*
X907593*
Y443008*
X909780*
X910405Y442696*
X910718Y442071*
X910405Y441446*
X909780Y441133*
X907593*
X909977Y425189D02*
X910602Y424876D01*
X910915Y424251*
X910602Y423626*
X909977Y423313*
X907789*
Y427063*
X909977*
X910602Y426751*
X910915Y426126*
X910602Y425501*
X909977Y425189*
X907789*
X919576Y522541D02*
X919263Y522228D01*
X918638Y521916*
X917701*
X917076Y522228*
X916763Y522541*
X916451Y523166*
Y524416*
X916763Y525041*
X917076Y525354*
X917701Y525666*
X918638*
X919263Y525354*
X919576Y525041*
Y562541D02*
X919263Y562228D01*
X918638Y561916*
X917701*
X917076Y562228*
X916763Y562541*
X916451Y563166*
Y564416*
X916763Y565041*
X917076Y565354*
X917701Y565666*
X918638*
X919263Y565354*
X919576Y565041*
X916648Y50351D02*
Y51601D01*
X916960Y52226*
X917273Y52539*
X917898Y52851*
X918523*
X919148Y52539*
X919460Y52226*
X919773Y51601*
Y50351*
X919460Y49726*
X919148Y49413*
X918523Y49101*
X917898*
X917273Y49413*
X916960Y49726*
X916648Y50351*
X918835Y50039D02*
X919773Y49101D01*
Y470376D02*
X919460Y470063D01*
X918835Y469750*
X917898*
X917273Y470063*
X916960Y470376*
X916648Y471000*
Y472250*
X916960Y472876*
X917273Y473188*
X917898Y473500*
X918835*
X919460Y473188*
X919773Y472876*
Y510376D02*
X919460Y510063D01*
X918835Y509750*
X917898*
X917273Y510063*
X916960Y510376*
X916648Y511000*
Y512250*
X916960Y512876*
X917273Y513188*
X917898Y513500*
X918835*
X919460Y513188*
X919773Y512876*
X937514Y81187D02*
Y84937D01*
X939701*
X940326Y84625*
X940639Y84000*
X940326Y83375*
X939701Y83063*
X937514*
X941451Y71345D02*
Y75095D01*
X943638*
X944263Y74783*
X944576Y74157*
X944263Y73533*
X943638Y73220*
X941451*
X942337Y503924D02*
Y507674D01*
X944524*
X945149Y507361*
X945462Y506736*
X945149Y506111*
X944524Y505799*
X942337*
Y511798D02*
Y515548D01*
X944524*
X945149Y515235*
X945462Y514610*
X945149Y513985*
X944524Y513673*
X942337*
Y519672D02*
Y523422D01*
X944524*
X945149Y523109*
X945462Y522484*
X945149Y521859*
X944524Y521547*
X942337*
Y527546D02*
Y531296D01*
X944524*
X945149Y530983*
X945462Y530358*
X945149Y529733*
X944524Y529421*
X942337*
Y535420D02*
Y539170D01*
X944524*
X945149Y538857*
X945462Y538232*
X945149Y537607*
X944524Y537295*
X942337*
X945388Y81187D02*
Y84937D01*
X947575*
X948200Y84625*
X948513Y84000*
X948200Y83375*
X947575Y83063*
X945388*
X949325Y71345D02*
Y75095D01*
X951512*
X952137Y74783*
X952450Y74157*
X952137Y73533*
X951512Y73220*
X949325*
X953262Y81187D02*
Y84937D01*
X955449*
X956074Y84625*
X956387Y84000*
X956074Y83375*
X955449Y83063*
X953262*
X957199Y71345D02*
Y75095D01*
X959386*
X960011Y74783*
X960324Y74157*
X960011Y73533*
X959386Y73220*
X957199*
X961136Y81187D02*
Y84937D01*
X963323*
X963948Y84625*
X964261Y84000*
X963948Y83375*
X963323Y83063*
X961136*
X964581Y485095D02*
Y486345D01*
X964893Y486970*
X965206Y487283*
X965831Y487595*
X966456*
X967081Y487283*
X967393Y486970*
X967706Y486345*
Y485095*
X967393Y484470*
X967081Y484157*
X966456Y483845*
X965831*
X965206Y484157*
X964893Y484470*
X964581Y485095*
X966768Y484783D02*
X967706Y483845D01*
X964581Y555567D02*
Y556817D01*
X964893Y557443*
X965206Y557755*
X965831Y558067*
X966456*
X967081Y557755*
X967393Y557443*
X967706Y556817*
Y555567*
X967393Y554943*
X967081Y554630*
X966456Y554317*
X965831*
X965206Y554630*
X964893Y554943*
X964581Y555567*
X966768Y555255D02*
X967706Y554317D01*
X965073Y71345D02*
Y75095D01*
X967260*
X967885Y74783*
X968198Y74157*
X967885Y73533*
X967260Y73220*
X965073*
X969010Y81187D02*
Y84937D01*
X971197*
X971822Y84625*
X972135Y84000*
X971822Y83375*
X971197Y83063*
X969010*
X972947Y71345D02*
Y75095D01*
X975134*
X975759Y74783*
X976072Y74157*
X975759Y73533*
X975134Y73220*
X972947*
X992632Y50351D02*
Y51601D01*
X992944Y52226*
X993257Y52539*
X993882Y52851*
X994507*
X995132Y52539*
X995444Y52226*
X995757Y51601*
Y50351*
X995444Y49726*
X995132Y49413*
X994507Y49101*
X993882*
X993257Y49413*
X992944Y49726*
X992632Y50351*
X994819Y50039D02*
X995757Y49101D01*
X993222Y281650D02*
Y282900D01*
X993535Y283525*
X993848Y283838*
X994472Y284150*
X995098*
X995722Y283838*
X996035Y283525*
X996348Y282900*
Y281650*
X996035Y281025*
X995722Y280713*
X995098Y280400*
X994472*
X993848Y280713*
X993535Y281025*
X993222Y281650*
X993518Y593067D02*
Y594317D01*
X993830Y594943*
X994143Y595255*
X994768Y595567*
X995393*
X996018Y595255*
X996330Y594943*
X996643Y594317*
Y593067*
X996330Y592443*
X996018Y592130*
X995393Y591817*
X994768*
X994143Y592130*
X993830Y592443*
X993518Y593067*
X1024423Y25744D02*
Y26994D01*
X1024736Y27620*
X1025048Y27932*
X1025673Y28244*
X1026298*
X1026923Y27932*
X1027236Y27620*
X1027548Y26994*
Y25744*
X1027236Y25120*
X1026923Y24807*
X1026298Y24494*
X1025673*
X1025048Y24807*
X1024736Y25120*
X1024423Y25744*
X1024522Y57339D02*
Y58589D01*
X1024834Y59214*
X1025147Y59527*
X1025772Y59839*
X1026397*
X1027022Y59527*
X1027334Y59214*
X1027647Y58589*
Y57339*
X1027334Y56714*
X1027022Y56402*
X1026397Y56089*
X1025772*
X1025147Y56402*
X1024834Y56714*
X1024522Y57339*
D02*
D122*
X18656Y18557D03*
Y553990D03*
X18951Y585880D03*
X28872Y272770D03*
X38439Y356746D03*
X38872Y272770D03*
X46018Y429207D03*
Y439207D03*
Y449207D03*
Y459207D03*
X46411Y478400D03*
Y488400D03*
Y498400D03*
Y508400D03*
X48085Y373872D03*
X48872Y272770D03*
X58872D03*
X60093Y290211D03*
X60388Y299856D03*
X68872Y272770D03*
X71215Y398970D03*
Y408970D03*
X78872Y272770D03*
X93478Y319522D03*
Y329522D03*
Y339522D03*
Y349522D03*
Y359522D03*
Y369522D03*
Y379522D03*
Y389522D03*
Y399522D03*
D03*
Y409522D03*
Y419522D03*
Y429522D03*
Y439522D03*
Y449522D03*
Y459522D03*
Y469522D03*
Y479522D03*
Y489522D03*
Y499522D03*
Y509522D03*
X99167Y528301D03*
Y538301D03*
X110467Y54266D03*
Y240486D03*
X124364Y528301D03*
Y538301D03*
X132711Y73163D03*
Y81037D03*
Y88911D03*
Y96785D03*
Y104659D03*
Y112533D03*
Y120407D03*
Y128281D03*
Y136156D03*
Y144030D03*
Y165289D03*
Y173163D03*
Y181037D03*
Y188911D03*
Y196785D03*
Y204659D03*
Y212533D03*
Y220407D03*
X149069Y528301D03*
Y538301D03*
X153478Y319522D03*
Y329522D03*
Y339522D03*
Y349522D03*
Y359522D03*
Y369522D03*
Y379522D03*
Y389522D03*
Y399522D03*
Y409522D03*
Y419522D03*
D03*
Y429522D03*
Y439522D03*
Y449522D03*
Y459522D03*
Y469522D03*
Y479522D03*
Y489522D03*
Y499522D03*
Y509522D03*
X157435Y280270D03*
X158222Y289423D03*
X174659Y419344D03*
Y429344D03*
X212553Y44246D03*
X217179Y267967D03*
X217376Y476037D03*
Y499659D03*
X227179Y267967D03*
X228301Y318439D03*
Y328439D03*
Y338439D03*
X229128Y188833D03*
Y214030D03*
Y238734D03*
X231156Y380270D03*
X231352Y395821D03*
Y411569D03*
Y443065D03*
X231549Y427120D03*
X235093Y476037D03*
Y499659D03*
X237179Y267967D03*
X237356Y66490D03*
X239128Y188833D03*
Y214030D03*
Y238734D03*
X241293Y76333D03*
X245230Y66490D03*
X247179Y267967D03*
X247317Y131963D03*
X249167Y76333D03*
X253104Y66490D03*
X257041Y76333D03*
X257317Y131963D03*
X257435Y118360D03*
X257907Y183144D03*
Y243144D03*
X258616Y556943D03*
X260978Y66490D03*
X264915Y76333D03*
X267179Y118360D03*
X267317Y131963D03*
X267770Y307041D03*
Y324758D03*
X267907Y183144D03*
Y243144D03*
X268852Y66490D03*
X272789Y76333D03*
X274561Y557140D03*
X276726Y66490D03*
X276923Y118360D03*
X277317Y131963D03*
X277907Y183144D03*
Y243144D03*
X280663Y76333D03*
X284600Y66490D03*
X287317Y131963D03*
X287907Y183144D03*
Y243144D03*
X288537Y76333D03*
X290112Y556943D03*
X291392Y307041D03*
Y324758D03*
X292474Y66490D03*
X296411Y76333D03*
X297907Y183144D03*
Y243144D03*
X300348Y66490D03*
X304285Y76333D03*
X304856Y460604D03*
Y520604D03*
X307907Y183144D03*
Y243144D03*
X308222Y132238D03*
X314856Y460604D03*
Y520604D03*
X317907Y183144D03*
Y243144D03*
X318222Y132238D03*
X319305Y557435D03*
X324856Y460604D03*
Y520604D03*
X327907Y44246D03*
Y183144D03*
Y243144D03*
X328222Y132238D03*
X334856Y460604D03*
Y520604D03*
Y557435D03*
X337907Y183144D03*
Y243144D03*
X338085Y264325D03*
X338222Y132238D03*
X344738Y431215D03*
X344856Y460604D03*
D03*
Y520604D03*
X345329Y494148D03*
X347907Y183144D03*
Y243144D03*
D03*
X348085Y264325D03*
X350604Y557238D03*
X354738Y431215D03*
X354856Y460604D03*
Y520604D03*
X355073Y494148D03*
X357907Y183144D03*
Y243144D03*
X358459Y160880D03*
X364738Y431215D03*
X364856Y460604D03*
Y520604D03*
X365112Y494148D03*
X366195Y557238D03*
X367907Y183144D03*
D03*
Y243144D03*
X368459Y160880D03*
X374738Y431215D03*
X374856Y460604D03*
Y520604D03*
X374955Y493951D03*
X377907Y183144D03*
Y243144D03*
X381156Y92179D03*
X381352Y99167D03*
X381904Y557041D03*
X384699Y493951D03*
X384738Y431215D03*
X384856Y460604D03*
Y520604D03*
X387907Y183144D03*
Y243144D03*
X388931Y354187D03*
X394738Y431215D03*
Y493951D03*
X394856Y460604D03*
Y520604D03*
X396116Y92179D03*
X397848Y557238D03*
X397907Y183144D03*
Y243144D03*
X404384Y493852D03*
X404522Y354187D03*
X404738Y431215D03*
X404856Y460604D03*
Y520604D03*
X407907Y183144D03*
Y243144D03*
X413400Y557041D03*
X414128Y493852D03*
X414738Y431215D03*
X414856Y460604D03*
Y520604D03*
X417278Y99167D03*
X417907Y183144D03*
Y243144D03*
X424167Y493852D03*
X424738Y431215D03*
X424856Y460604D03*
Y520604D03*
X427907Y183144D03*
Y243144D03*
X429148Y557041D03*
X433715Y493852D03*
X434404Y307376D03*
Y317376D03*
X434738Y431215D03*
X434856Y460604D03*
Y520604D03*
X437907Y183144D03*
Y243144D03*
X444699Y556844D03*
X444738Y431215D03*
X444856Y460604D03*
Y520604D03*
X447907Y183144D03*
Y243144D03*
X471018Y499364D03*
X472396Y116293D03*
X481844Y510585D03*
X482041Y499069D03*
X484994Y301431D03*
X485191Y221707D03*
Y316982D03*
Y332730D03*
Y364226D03*
X485388Y348281D03*
Y379935D03*
Y395526D03*
X485585Y411274D03*
Y426825D03*
X489128Y499069D03*
X496215D03*
X522494Y274364D03*
X522593Y18557D03*
X522789Y585880D03*
X539719Y540558D03*
X569344Y310073D03*
Y320073D03*
Y330073D03*
X577120Y540558D03*
X580762Y248675D03*
X588380Y165998D03*
Y191195D03*
Y215900D03*
X590762Y248675D03*
X595565Y538636D03*
X595841Y110289D03*
X598380Y165998D03*
Y191195D03*
Y215900D03*
X600762Y248675D03*
X604482Y498872D03*
Y518872D03*
X604974Y451333D03*
Y477612D03*
X605841Y110289D03*
X605959Y91392D03*
X610762Y248675D03*
X615565Y538636D03*
X615703Y91392D03*
X615841Y110289D03*
X617159Y160309D03*
Y220309D03*
X620132Y358911D03*
X625447Y91392D03*
X625841Y110289D03*
X627022Y284207D03*
Y301923D03*
X627159Y160309D03*
Y220309D03*
X630132Y358911D03*
X631077Y483222D03*
X635841Y110289D03*
X637159Y160309D03*
Y220309D03*
X646018Y526385D03*
X647159Y160309D03*
Y220309D03*
X650644Y284207D03*
Y301923D03*
X652711Y541739D03*
X657159Y160309D03*
Y220309D03*
X659404Y526385D03*
X661035Y587159D03*
X661805Y505663D03*
X666096Y541739D03*
X667159Y160309D03*
Y220309D03*
X667474Y110388D03*
X672789Y526385D03*
X677159Y160309D03*
Y220309D03*
X677474Y110388D03*
X681805Y505663D03*
X685959Y420841D03*
Y450841D03*
X686057Y369463D03*
Y399463D03*
X687159Y160309D03*
Y220309D03*
X687474Y110388D03*
X691077Y483222D03*
X697159Y160309D03*
Y220309D03*
X697337Y241490D03*
X697474Y110388D03*
X704561Y515683D03*
Y535683D03*
X707159Y160309D03*
Y220309D03*
D03*
X707337Y241490D03*
X715703Y515801D03*
Y545329D03*
X715959Y420841D03*
Y450841D03*
X716057Y369463D03*
Y399463D03*
X717159Y160309D03*
Y220309D03*
X717711Y138045D03*
X727159Y160309D03*
D03*
Y220309D03*
X727711Y138045D03*
X735959Y420841D03*
Y450841D03*
X736057Y369463D03*
Y399463D03*
X737159Y160309D03*
Y220309D03*
X746805Y44541D03*
X747159Y160309D03*
Y220309D03*
X748183Y80368D03*
Y89522D03*
X755959Y420841D03*
Y450841D03*
X756057Y369463D03*
Y399463D03*
X757159Y160309D03*
Y220309D03*
X758518Y89522D03*
X767159Y160309D03*
Y220309D03*
X771608Y66785D03*
X775545Y76628D03*
X777159Y160309D03*
Y220309D03*
X779482Y66785D03*
X783419Y76628D03*
X787159Y160309D03*
Y220309D03*
X787356Y66785D03*
X791293Y76628D03*
X795230Y66785D03*
X797159Y160309D03*
Y220309D03*
X799167Y76628D03*
X803104Y66785D03*
X804364Y534207D03*
Y544207D03*
X804837Y567159D03*
X807041Y76628D03*
X807159Y160309D03*
Y220309D03*
X810978Y66785D03*
X814837Y567159D03*
X814915Y76628D03*
X818852Y66785D03*
X822789Y76628D03*
X824837Y567159D03*
X826726Y66785D03*
X830663Y76628D03*
X832927Y267907D03*
Y277907D03*
X834364Y534207D03*
Y544207D03*
X834600Y66785D03*
X834837Y567159D03*
X838537Y76628D03*
X844738Y219738D03*
X848616Y486116D03*
X854187Y565447D03*
Y585447D03*
X858616Y477022D03*
X858911Y495919D03*
X859640Y515506D03*
X862159Y44541D03*
X864719Y141589D03*
X879640Y515506D03*
X882730Y536254D03*
Y546254D03*
Y556254D03*
X882829Y463813D03*
Y503813D03*
X896510Y174856D03*
X896608Y236470D03*
Y252219D03*
Y283715D03*
X896707Y158911D03*
Y221215D03*
X896805Y267770D03*
Y299423D03*
Y315014D03*
X897002Y330762D03*
Y346313D03*
X897396Y370526D03*
X897593Y386077D03*
Y401825D03*
Y433321D03*
X897789Y417376D03*
X906451Y515978D03*
Y555978D03*
X906648Y43163D03*
Y463813D03*
Y503813D03*
X927514Y75250D03*
X931451Y65407D03*
X932337Y497986D03*
Y505860D03*
Y513734D03*
Y521608D03*
Y529482D03*
X935388Y75250D03*
X939325Y65407D03*
X943262Y75250D03*
X947199Y65407D03*
X951136Y75250D03*
X954581Y477907D03*
Y548380D03*
X955073Y65407D03*
X959010Y75250D03*
X962947Y65407D03*
X982632Y43163D03*
X983222Y274463D03*
X983518Y585880D03*
X1014423Y18557D03*
X1014522Y50152D03*
X0Y0D02*
M02*
